<?xml version="1.0" encoding="UTF-8" standalone="no"?>
<!-- Created with Inkscape (http://www.inkscape.org/) -->

<svg
   width="32"
   height="31.999998"
   viewBox="0 0 8.4666665 8.4666661"
   version="1.1"
   id="svg5"
   xml:space="preserve"
   inkscape:version="1.3 (0e150ed6c4, 2023-07-21)"
   sodipodi:docname="icon_folder_search.svg"
   inkscape:export-filename="icon_search_folder.png"
   inkscape:export-xdpi="192"
   inkscape:export-ydpi="192"
   xmlns:inkscape="http://www.inkscape.org/namespaces/inkscape"
   xmlns:sodipodi="http://sodipodi.sourceforge.net/DTD/sodipodi-0.dtd"
   xmlns="http://www.w3.org/2000/svg"
   xmlns:svg="http://www.w3.org/2000/svg"><sodipodi:namedview
     id="namedview7"
     pagecolor="#ffffff"
     bordercolor="#666666"
     borderopacity="1.0"
     inkscape:showpageshadow="2"
     inkscape:pageopacity="0.0"
     inkscape:pagecheckerboard="true"
     inkscape:deskcolor="#d1d1d1"
     inkscape:document-units="px"
     showgrid="false"
     inkscape:zoom="15.666835"
     inkscape:cx="15.98919"
     inkscape:cy="16.053019"
     inkscape:window-width="1920"
     inkscape:window-height="1000"
     inkscape:window-x="-11"
     inkscape:window-y="-11"
     inkscape:window-maximized="1"
     inkscape:current-layer="layer1"
     showguides="true" /><defs
     id="defs2"><inkscape:path-effect
       effect="fillet_chamfer"
       id="path-effect35"
       is_visible="true"
       lpeversion="1"
       nodesatellites_param="F,0,0,1,0,0.953381,0,1 @ F,0,0,1,0,0.97447696,0,1 @ F,0,0,1,0,1.1563433,0,1 @ F,0,0,1,0,0.74753081,0,1 @ F,0,0,1,0,0.37554865,0,1 @ F,0,0,1,0,0.46131822,0,1"
       radius="0"
       unit="px"
       method="auto"
       mode="F"
       chamfer_steps="1"
       flexible="false"
       use_knot_distance="true"
       apply_no_radius="true"
       apply_with_radius="true"
       only_selected="false"
       hide_knots="false" /></defs><g
     inkscape:label="Layer 1"
     inkscape:groupmode="layer"
     id="layer1"
     transform="translate(-129.66141,-127.25538)"><g
       id="g40"
       transform="matrix(0.34430259,0,0,0.34430259,76.820953,83.629149)"
       style="stroke-width:2.90442"><path
         style="fill:#ebba00;fill-opacity:1;fill-rule:evenodd;stroke:none;stroke-width:0.768461px;stroke-linecap:butt;stroke-linejoin:miter;stroke-opacity:1"
         d="m 156.54483,130.73621 0,7.60595 a 0.97447696,0.97447696 45 0 0 0.97448,0.97448 h 8.04888 a 1.1563433,1.1563433 135 0 0 1.15634,-1.15634 v -6.61505 a 0.74753081,0.74753081 45 0 0 -0.74753,-0.74753 h -3.09025 a 1.3347355,1.3347355 15.714776 0 1 -0.696,-0.19583 l -0.94665,-0.57851 a 1.6395686,1.6395686 15.714776 0 0 -0.85495,-0.24055 l -2.89094,0 a 0.953381,0.953381 135 0 0 -0.95338,0.95338 z"
         id="path35"
         sodipodi:nodetypes="ccccccc"
         inkscape:path-effect="#path-effect35"
         inkscape:original-d="m 156.54483,129.78283 v 9.53381 h 10.1797 v -8.51892 h -4.21333 l -1.66073,-1.01489 z" /><path
         id="path36"
         style="fill:#ddaf00;fill-opacity:1;fill-rule:evenodd;stroke:none;stroke-width:0.768461px;stroke-linecap:butt;stroke-linejoin:miter;stroke-opacity:1"
         d="m 165.28211,132.88891 a 2.2118958,2.2118958 0 0 0 -1.09761,0.29145 l -0.83612,0.47801 a 2.5639679,2.5639679 0 0 1 -1.27228,0.33797 h -2.68045 a 1.136367,1.136367 0 0 0 -1.09089,0.81752 l -0.95705,3.2768 a 1.0777705,1.0777705 0 0 0 1.03456,1.37976 h 7.37061 a 1.657455,1.657455 0 0 0 1.24489,-0.56534 1.1563433,1.1563433 0 0 0 0.0408,-0.30179 v -5.71438 z"
         transform="translate(-0.31388712,-0.44324892)" /><path
         id="path34"
         style="fill:#fede3f;fill-opacity:1;fill-rule:evenodd;stroke:none;stroke-width:0.768461px;stroke-linecap:butt;stroke-linejoin:miter;stroke-opacity:1"
         d="m 166.94123,132.88904 h -1.65933 a 2.2118958,2.2118958 0 0 0 -1.09709,0.29146 l -0.83664,0.47801 a 2.5639679,2.5639679 0 0 1 -1.27176,0.33744 h -2.68046 a 1.136367,1.136367 0 0 0 -1.09089,0.81804 l -0.95704,3.27629 a 1.0777705,1.0777705 0 0 0 1.03404,1.38027 h 0.13488 z" /><path
         id="path40"
         style="fill:#fed300;fill-opacity:1;fill-rule:evenodd;stroke:none;stroke-width:0.768461px;stroke-linecap:butt;stroke-linejoin:miter;stroke-opacity:1"
         d="m 166.94123,132.88904 -8.42429,6.58151 h 7.23573 a 1.657455,1.657455 0 0 0 1.58182,-1.1622 l 1.32911,-4.24625 a 0.90317757,0.90317757 0 0 0 -0.86196,-1.17306 z" /></g><g
       id="g8"
       transform="matrix(0.64862212,-0.64862212,0.64862212,0.64862212,-45.152977,141.5561)"
       style="stroke-width:1.09016"><circle
         style="color:#000000;overflow:visible;fill:#c7eafb;fill-opacity:0.638331;stroke-width:2.30752;stroke-miterlimit:5;-inkscape-stroke:none"
         id="circle2"
         cx="145.80099"
         cy="129.63663"
         r="1.9117922" /><path
         id="path1"
         style="color:#000000;overflow:visible;fill:#788f9b;fill-opacity:1;stroke-width:2.30752;stroke-miterlimit:5;-inkscape-stroke:none"
         d="m 145.80099,127.51996 a 2.1166666,2.1166666 0 0 0 -2.11666,2.11667 2.1166666,2.1166666 0 0 0 1.90169,2.10116 v 0.16278 h 0.42995 v -0.15864 a 2.1166666,2.1166666 0 0 0 1.90169,-2.1053 2.1166666,2.1166666 0 0 0 -2.11667,-2.11667 z m 0,0.33642 a 1.7804335,1.7804335 0 0 1 1.78026,1.78025 1.7804335,1.7804335 0 0 1 -1.78026,1.78025 1.7804335,1.7804335 0 0 1 -1.78025,-1.78025 1.7804335,1.7804335 0 0 1 1.78025,-1.78025 z" /><path
         id="circle3"
         style="color:#000000;overflow:visible;fill:#ffffff;fill-opacity:0.74034;stroke-width:2.30752;stroke-miterlimit:5;-inkscape-stroke:none"
         d="m 144.57316,128.79947 a 1.4882346,1.4882346 0 0 0 -0.26045,0.83716 1.4882346,1.4882346 0 0 0 1.48828,1.48828 1.4882346,1.4882346 0 0 0 0.83716,-0.26045 1.7867779,1.7867779 0 0 1 -0.30799,0.03 1.7867779,1.7867779 0 0 1 -1.78697,-1.78697 1.7867779,1.7867779 0 0 1 0.03,-0.30799 z" /><rect
         style="color:#000000;overflow:visible;fill:#ffa526;fill-opacity:1;stroke-width:2.30752;stroke-miterlimit:5;-inkscape-stroke:none"
         id="rect4"
         width="0.85980248"
         height="2.9018335"
         x="145.37109"
         y="131.9007"
         inkscape:transform-center-y="3.7149854"
         rx="0.16273068"
         ry="0.16273068" /><path
         id="rect5"
         style="color:#000000;overflow:visible;fill:#f98b00;fill-opacity:1;stroke-width:2.30752;stroke-miterlimit:5;-inkscape-stroke:none"
         inkscape:transform-center-y="3.7149854"
         d="m 145.52039,131.90057 c -0.0827,0 -0.14934,0.0667 -0.14934,0.14935 v 2.60346 c 0,0.0827 0.0666,0.14934 0.14934,0.14934 h 0.2806 v -2.90215 z" /><path
         id="rect8"
         style="color:#000000;overflow:visible;fill:#546e7a;fill-opacity:1;stroke-width:2.30752;stroke-miterlimit:5;-inkscape-stroke:none"
         d="m 145.58602,131.73779 v 0.16278 h 0.21497 v -0.14727 a 2.1166666,2.1166666 0 0 1 -0.21497,-0.0155 z" /></g></g></svg>
