<?xml version="1.0" encoding="UTF-8" standalone="no"?>
<!-- Created with Inkscape (http://www.inkscape.org/) -->

<svg
   width="32.000015"
   height="31.999998"
   viewBox="0 0 8.4666705 8.4666661"
   version="1.1"
   id="svg5"
   xml:space="preserve"
   inkscape:version="1.3 (0e150ed6c4, 2023-07-21)"
   sodipodi:docname="icon_camera.svg"
   xmlns:inkscape="http://www.inkscape.org/namespaces/inkscape"
   xmlns:sodipodi="http://sodipodi.sourceforge.net/DTD/sodipodi-0.dtd"
   xmlns:xlink="http://www.w3.org/1999/xlink"
   xmlns="http://www.w3.org/2000/svg"
   xmlns:svg="http://www.w3.org/2000/svg"><sodipodi:namedview
     id="namedview7"
     pagecolor="#ffffff"
     bordercolor="#666666"
     borderopacity="1.0"
     inkscape:showpageshadow="2"
     inkscape:pageopacity="0.0"
     inkscape:pagecheckerboard="true"
     inkscape:deskcolor="#d1d1d1"
     inkscape:document-units="px"
     showgrid="false"
     inkscape:zoom="22.156251"
     inkscape:cx="16.022566"
     inkscape:cy="15.999999"
     inkscape:window-width="1920"
     inkscape:window-height="1000"
     inkscape:window-x="-11"
     inkscape:window-y="-11"
     inkscape:window-maximized="1"
     inkscape:current-layer="layer2"
     showguides="true" /><defs
     id="defs2"><linearGradient
       id="linearGradient16"
       inkscape:collect="always"><stop
         style="stop-color:#664c30;stop-opacity:1"
         offset="0"
         id="stop16" /><stop
         style="stop-color:#cf00dc;stop-opacity:0;"
         offset="1"
         id="stop17" /></linearGradient><linearGradient
       inkscape:collect="always"
       xlink:href="#linearGradient16"
       id="linearGradient21"
       x1="4.6405748"
       y1="2.0691092"
       x2="8.2454563"
       y2="2.0691092"
       gradientUnits="userSpaceOnUse" /><linearGradient
       inkscape:collect="always"
       xlink:href="#linearGradient2424"
       id="linearGradient19"
       gradientUnits="userSpaceOnUse"
       x1="4.6405748"
       y1="2.0691092"
       x2="8.2454563"
       y2="2.0691092" /><linearGradient
       inkscape:collect="always"
       id="linearGradient2424"><stop
         style="stop-color:#aeaeae;stop-opacity:1"
         offset="0"
         id="stop19" /><stop
         style="stop-color:#b5b5b5;stop-opacity:0"
         offset="1"
         id="stop20" /></linearGradient></defs><g
     inkscape:label="Layer 1"
     inkscape:groupmode="layer"
     id="layer1"
     transform="translate(-66.161442,-127.25538)" /><g
     inkscape:groupmode="layer"
     id="layer2"
     inkscape:label="Layer 2"
     style="opacity:1"><g
       id="g27"
       inkscape:export-filename="..\design\buttons_enabled.png"
       inkscape:export-xdpi="600"
       inkscape:export-ydpi="600"><path
         style="fill:#4e4e50;fill-opacity:1;fill-rule:evenodd;stroke:none;stroke-width:0.0462172px;stroke-linecap:butt;stroke-linejoin:miter;stroke-opacity:1"
         d="m 8.3571747,0.60153577 -0.2102899,0.2726345 3e-6,1.52757313 0.2102922,-0.272633 z"
         id="path26"
         sodipodi:nodetypes="ccccc" /><path
         style="font-variation-settings:normal;opacity:1;vector-effect:none;fill:#090909;fill-opacity:1;fill-rule:evenodd;stroke:none;stroke-width:0.0779631;stroke-linecap:butt;stroke-linejoin:round;stroke-miterlimit:4;stroke-dasharray:none;stroke-dashoffset:0;stroke-opacity:1;-inkscape-stroke:none;stop-color:#000000;stop-opacity:1"
         d="M 7.9728237,6.0774594 7.9540107,1.9231963 0.4017854,0.97835338 0.4205954,5.1326162 Z"
         id="path5"
         sodipodi:nodetypes="ccccc" /><path
         style="fill:#737375;fill-opacity:1;fill-rule:evenodd;stroke:none;stroke-width:0.264583px;stroke-linecap:butt;stroke-linejoin:miter;stroke-opacity:1"
         d="M 8.3788415,1.3724293 7.954011,1.9231963 0.4017857,0.97835338 0.8266161,0.42758637 Z"
         id="path7"
         sodipodi:nodetypes="ccccc" /><path
         style="font-variation-settings:normal;opacity:1;vector-effect:none;fill:#4e4e50;fill-opacity:1;fill-rule:evenodd;stroke:none;stroke-width:0.0779631;stroke-linecap:butt;stroke-linejoin:round;stroke-miterlimit:4;stroke-dasharray:none;stroke-dashoffset:0;stroke-opacity:1;-inkscape-stroke:none;stop-color:#000000;stop-opacity:1"
         d="M 8.3788415,1.3724293 7.954011,1.9231963 7.972824,6.0774594 8.3976545,5.5266924 Z"
         id="path8"
         sodipodi:nodetypes="ccccc" /><path
         style="font-variation-settings:normal;opacity:1;vector-effect:none;fill:#2b2b2b;fill-opacity:1;fill-rule:evenodd;stroke:none;stroke-width:0.0209438;stroke-linecap:butt;stroke-linejoin:round;stroke-miterlimit:4;stroke-dasharray:none;stroke-dashoffset:0;stroke-opacity:1;-inkscape-stroke:none;stop-color:#000000;stop-opacity:1"
         d="M 1.8565595,1.9495716 1.8753725,5.574668 0.1474197,5.35849 0.1286497,1.7333892 Z"
         id="path9"
         sodipodi:nodetypes="ccccc" /><path
         style="font-variation-settings:normal;opacity:1;vector-effect:none;fill:#4e4e50;fill-opacity:1;fill-rule:evenodd;stroke:none;stroke-width:0.0779631;stroke-linecap:butt;stroke-linejoin:round;stroke-miterlimit:4;stroke-dasharray:none;stroke-dashoffset:0;stroke-opacity:1;-inkscape-stroke:none;stop-color:#000000;stop-opacity:1"
         d="M 2.5822,1.4364395 1.8565595,1.9495716 1.8753725,5.574668 2.601013,5.0615359 Z"
         id="path10"
         sodipodi:nodetypes="ccccc" /><path
         id="path6"
         style="color:#000000;overflow:visible;fill:#383839;fill-opacity:1;stroke:none;stroke-width:0.0779631;stroke-linejoin:round"
         d="M 4.646747,1.7491105 A 2.3699063,2.0174082 46.531816 0 0 3.2979921,2.2550227 L 1.3503075,4.3716894 A 2.3699063,2.0174082 46.531816 0 0 1.5533958,7.4836441 2.3699063,2.0174082 46.531816 0 0 4.6457135,7.7787165 L 6.5933982,5.6620499 A 2.3699063,2.0174082 46.531816 0 0 6.3903098,2.5500952 2.3699063,2.0174082 46.531816 0 0 4.646747,1.7491105 Z" /><ellipse
         style="color:#000000;overflow:visible;fill:#090909;fill-opacity:1;stroke:none;stroke-width:0.0779634;stroke-linejoin:round"
         id="ellipse8"
         cx="6.4430156"
         cy="2.0691092"
         rx="2.3698599"
         ry="2.0174627"
         transform="matrix(0.69528423,0.71873489,-0.71604761,0.69805144,0,0)" /><ellipse
         style="color:#000000;overflow:visible;fill:url(#linearGradient21);fill-opacity:1;stroke:none;stroke-width:0.0592965;stroke-linejoin:round"
         id="ellipse9"
         cx="6.4430156"
         cy="2.0691092"
         rx="1.8024408"
         ry="1.5344186"
         transform="matrix(0.69528423,0.71873489,-0.71604761,0.69805144,0,0)" /><path
         style="font-variation-settings:normal;opacity:1;vector-effect:none;fill:#737375;fill-opacity:1;fill-rule:evenodd;stroke:none;stroke-width:0.264583px;stroke-linecap:butt;stroke-linejoin:miter;stroke-miterlimit:4;stroke-dasharray:none;stroke-dashoffset:0;stroke-opacity:1;-inkscape-stroke:none;stop-color:#000000;stop-opacity:1"
         d="M 2.5822,1.4364395 1.8565595,1.9495716 0.1286467,1.7333892 0.5534777,1.1826222 Z"
         id="path11"
         sodipodi:nodetypes="ccccc" /><path
         id="ellipse12"
         style="color:#000000;overflow:visible;fill:#2b2b2b;fill-opacity:1;stroke:none;stroke-width:0.0125432;stroke-linejoin:round"
         d="M 1.2724055,1.0779679 A 0.25220314,0.4907081 87.49108 0 0 0.82267403,1.1929084 0.25220314,0.4907081 87.49108 0 0 0.72695983,1.3400323 h -8.3569e-4 l -1e-8,0.00583 1e-8,0.1910103 v 0.018805 h 0.002931 a 0.25220314,0.4907081 87.49108 0 0 0.19477041,0.1743042 0.25220314,0.4907081 87.49108 0 0 0.68629995,-0.0744 0.25220314,0.4907081 87.49108 0 0 0.084012,-0.099894 h 0.012535 l -2e-7,-0.2156706 h -0.00292 A 0.25220314,0.4907081 87.49108 0 0 1.508556,1.1185107 0.25220314,0.4907081 87.49108 0 0 1.2724055,1.0779679 Z" /><ellipse
         style="color:#000000;overflow:visible;fill:#737375;fill-opacity:1;stroke:none;stroke-width:0.0105251;stroke-linejoin:round"
         id="ellipse13"
         cx="2.180222"
         cy="1.0397637"
         rx="0.31725055"
         ry="0.27465811"
         transform="matrix(0.9438943,0.33024771,-0.80942191,0.58722752,0,0)" /><path
         style="fill:#4e4e50;fill-opacity:1;fill-rule:evenodd;stroke:none;stroke-width:0.0462172px;stroke-linecap:butt;stroke-linejoin:miter;stroke-opacity:1"
         d="m 8.3571747,0.60153577 -0.5391818,0.69902593 3e-6,0.4692398 L 8.35718,1.0707771 Z"
         id="path22"
         sodipodi:nodetypes="ccccc" /><path
         style="fill:#090909;fill-opacity:1;fill-rule:evenodd;stroke:none;stroke-width:0.0403695px;stroke-linecap:butt;stroke-linejoin:miter;stroke-opacity:1"
         d="m 7.8179929,1.3005617 3e-6,0.4692464 -1.3842234,-0.1731687 -5.3e-6,-0.4692464 z"
         id="path23"
         sodipodi:nodetypes="ccccc" /><path
         style="fill:#808080;fill-opacity:1;fill-rule:evenodd;stroke:none;stroke-width:0.0462172px;stroke-linecap:butt;stroke-linejoin:miter;stroke-opacity:1"
         d="M 8.3571747,0.60153577 7.8179929,1.3005617 6.4337672,1.127393 6.9729513,0.42836733 Z"
         id="path24"
         sodipodi:nodetypes="ccccc" /></g><g
       id="g19"
       transform="translate(10.454686)"
       inkscape:export-filename="..\design\buttons_disabled.png"
       inkscape:export-xdpi="600"
       inkscape:export-ydpi="600"><path
         style="fill:#ababab;fill-opacity:1;fill-rule:evenodd;stroke:none;stroke-width:0.0462172px;stroke-linecap:butt;stroke-linejoin:miter;stroke-opacity:1"
         d="m 8.3571747,0.60153577 -0.2102899,0.2726345 3e-6,1.52757313 0.2102922,-0.272633 z"
         id="path1"
         sodipodi:nodetypes="ccccc" /><path
         style="font-variation-settings:normal;opacity:1;vector-effect:none;fill:#5e5e5e;fill-opacity:1;fill-rule:evenodd;stroke:none;stroke-width:0.0779631;stroke-linecap:butt;stroke-linejoin:round;stroke-miterlimit:4;stroke-dasharray:none;stroke-dashoffset:0;stroke-opacity:1;-inkscape-stroke:none;stop-color:#5e5e5e;stop-opacity:1"
         d="M 7.9728237,6.0774594 7.9540107,1.9231963 0.4017854,0.97835338 0.4205954,5.1326162 Z"
         id="path2"
         sodipodi:nodetypes="ccccc" /><path
         style="fill:#d4d4d4;fill-opacity:1;fill-rule:evenodd;stroke:none;stroke-width:0.264583px;stroke-linecap:butt;stroke-linejoin:miter;stroke-opacity:1"
         d="M 8.3788415,1.3724293 7.954011,1.9231963 0.4017857,0.97835338 0.8266161,0.42758637 Z"
         id="path3"
         sodipodi:nodetypes="ccccc" /><path
         style="font-variation-settings:normal;opacity:1;vector-effect:none;fill:#ababab;fill-opacity:1;fill-rule:evenodd;stroke:none;stroke-width:0.0779631;stroke-linecap:butt;stroke-linejoin:round;stroke-miterlimit:4;stroke-dasharray:none;stroke-dashoffset:0;stroke-opacity:1;-inkscape-stroke:none;stop-color:#5e5e5e;stop-opacity:1"
         d="M 8.3788415,1.3724293 7.954011,1.9231963 7.972824,6.0774594 8.3976545,5.5266924 Z"
         id="path4"
         sodipodi:nodetypes="ccccc" /><path
         style="font-variation-settings:normal;opacity:1;vector-effect:none;fill:#848484;fill-opacity:1;fill-rule:evenodd;stroke:none;stroke-width:0.0209438;stroke-linecap:butt;stroke-linejoin:round;stroke-miterlimit:4;stroke-dasharray:none;stroke-dashoffset:0;stroke-opacity:1;-inkscape-stroke:none;stop-color:#5e5e5e;stop-opacity:1"
         d="M 1.8565595,1.9495716 1.8753725,5.574668 0.1474197,5.35849 0.1286497,1.7333892 Z"
         id="path12"
         sodipodi:nodetypes="ccccc" /><path
         style="font-variation-settings:normal;opacity:1;vector-effect:none;fill:#ababab;fill-opacity:1;fill-rule:evenodd;stroke:none;stroke-width:0.0779631;stroke-linecap:butt;stroke-linejoin:round;stroke-miterlimit:4;stroke-dasharray:none;stroke-dashoffset:0;stroke-opacity:1;-inkscape-stroke:none;stop-color:#5e5e5e;stop-opacity:1"
         d="M 2.5822,1.4364395 1.8565595,1.9495716 1.8753725,5.574668 2.601013,5.0615359 Z"
         id="path13"
         sodipodi:nodetypes="ccccc" /><path
         id="path14"
         style="color:#000000;overflow:visible;fill:#929292;fill-opacity:1;stroke:none;stroke-width:0.0779631;stroke-linejoin:round"
         d="M 4.646747,1.7491105 A 2.3699063,2.0174082 46.531816 0 0 3.2979921,2.2550227 L 1.3503075,4.3716894 A 2.3699063,2.0174082 46.531816 0 0 1.5533958,7.4836441 2.3699063,2.0174082 46.531816 0 0 4.6457135,7.7787165 L 6.5933982,5.6620499 A 2.3699063,2.0174082 46.531816 0 0 6.3903098,2.5500952 2.3699063,2.0174082 46.531816 0 0 4.646747,1.7491105 Z" /><ellipse
         style="color:#000000;overflow:visible;fill:#5e5e5e;fill-opacity:1;stroke:none;stroke-width:0.0779634;stroke-linejoin:round"
         id="ellipse14"
         cx="6.4430156"
         cy="2.0691092"
         rx="2.3698599"
         ry="2.0174627"
         transform="matrix(0.69528423,0.71873489,-0.71604761,0.69805144,0,0)" /><ellipse
         style="color:#000000;overflow:visible;fill:url(#linearGradient19);fill-opacity:1;stroke:none;stroke-width:0.0592965;stroke-linejoin:round"
         id="ellipse15"
         cx="6.4430156"
         cy="2.0691092"
         rx="1.8024408"
         ry="1.5344186"
         transform="matrix(0.69528423,0.71873489,-0.71604761,0.69805144,0,0)" /><path
         style="font-variation-settings:normal;opacity:1;vector-effect:none;fill:#d4d4d4;fill-opacity:1;fill-rule:evenodd;stroke:none;stroke-width:0.264583px;stroke-linecap:butt;stroke-linejoin:miter;stroke-miterlimit:4;stroke-dasharray:none;stroke-dashoffset:0;stroke-opacity:1;-inkscape-stroke:none;stop-color:#5e5e5e;stop-opacity:1"
         d="M 2.5822,1.4364395 1.8565595,1.9495716 0.1286467,1.7333892 0.5534777,1.1826222 Z"
         id="path15"
         sodipodi:nodetypes="ccccc" /><path
         id="path16"
         style="color:#000000;overflow:visible;fill:#848484;fill-opacity:1;stroke:none;stroke-width:0.0125432;stroke-linejoin:round"
         d="M 1.2724055,1.0779679 A 0.25220314,0.4907081 87.49108 0 0 0.82267403,1.1929084 0.25220314,0.4907081 87.49108 0 0 0.72695983,1.3400323 h -8.3569e-4 l -1e-8,0.00583 1e-8,0.1910103 v 0.018805 h 0.002931 a 0.25220314,0.4907081 87.49108 0 0 0.19477041,0.1743042 0.25220314,0.4907081 87.49108 0 0 0.68629995,-0.0744 0.25220314,0.4907081 87.49108 0 0 0.084012,-0.099894 h 0.012535 l -2e-7,-0.2156706 h -0.00292 A 0.25220314,0.4907081 87.49108 0 0 1.508556,1.1185107 0.25220314,0.4907081 87.49108 0 0 1.2724055,1.0779679 Z" /><ellipse
         style="color:#000000;overflow:visible;fill:#d4d4d4;fill-opacity:1;stroke:none;stroke-width:0.0105251;stroke-linejoin:round"
         id="ellipse16"
         cx="2.180222"
         cy="1.0397637"
         rx="0.31725055"
         ry="0.27465811"
         transform="matrix(0.9438943,0.33024771,-0.80942191,0.58722752,0,0)" /><path
         style="fill:#ababab;fill-opacity:1;fill-rule:evenodd;stroke:none;stroke-width:0.0462172px;stroke-linecap:butt;stroke-linejoin:miter;stroke-opacity:1"
         d="m 8.3571747,0.60153577 -0.5391818,0.69902593 3e-6,0.4692398 L 8.35718,1.0707771 Z"
         id="path17"
         sodipodi:nodetypes="ccccc" /><path
         style="fill:#5e5e5e;fill-opacity:1;fill-rule:evenodd;stroke:none;stroke-width:0.0403695px;stroke-linecap:butt;stroke-linejoin:miter;stroke-opacity:1"
         d="m 7.8179929,1.3005617 3e-6,0.4692464 -1.3842234,-0.1731687 -5.3e-6,-0.4692464 z"
         id="path18"
         sodipodi:nodetypes="ccccc" /><path
         style="fill:#e2e2e2;fill-opacity:1;fill-rule:evenodd;stroke:none;stroke-width:0.0462172px;stroke-linecap:butt;stroke-linejoin:miter;stroke-opacity:1"
         d="M 8.3571747,0.60153577 7.8179929,1.3005617 6.4337672,1.127393 6.9729513,0.42836733 Z"
         id="path19"
         sodipodi:nodetypes="ccccc" /></g></g></svg>
