<?xml version="1.0" encoding="UTF-8" standalone="no"?>
<!-- Created with Inkscape (http://www.inkscape.org/) -->

<svg
   width="32"
   height="32"
   viewBox="0 0 8.4666662 8.4666666"
   version="1.1"
   id="svg1"
   xml:space="preserve"
   inkscape:version="1.3 (0e150ed6c4, 2023-07-21)"
   sodipodi:docname="icon_settings.svg"
   xmlns:inkscape="http://www.inkscape.org/namespaces/inkscape"
   xmlns:sodipodi="http://sodipodi.sourceforge.net/DTD/sodipodi-0.dtd"
   xmlns="http://www.w3.org/2000/svg"
   xmlns:svg="http://www.w3.org/2000/svg"><sodipodi:namedview
     id="namedview1"
     pagecolor="#ffffff"
     bordercolor="#666666"
     borderopacity="1.0"
     inkscape:showpageshadow="2"
     inkscape:pageopacity="0.0"
     inkscape:pagecheckerboard="true"
     inkscape:deskcolor="#d1d1d1"
     inkscape:document-units="px"
     inkscape:zoom="15.666835"
     inkscape:cx="12.797735"
     inkscape:cy="15.478557"
     inkscape:current-layer="layer1" /><defs
     id="defs1" /><g
     inkscape:label="Layer 1"
     inkscape:groupmode="layer"
     id="layer1"><path
       id="path2"
       style="fill:#ababab;stroke:none;stroke-width:0.957466"
       sodipodi:type="inkscape:offset"
       inkscape:radius="0"
       inkscape:original="M 4.484375 0.47070312 C 4.366126 0.46833314 4.2453238 0.4765625 4.1289062 0.4765625 C 4.0404623 0.4765625 3.9360883 0.46162835 3.8496094 0.48046875 C 3.7103339 0.51081047 3.7207031 0.65635602 3.7207031 0.765625 L 3.7207031 1.3183594 C 3.7207031 1.4152654 3.7205198 1.5081361 3.625 1.5625 C 3.5467095 1.607058 3.4373224 1.6178764 3.3515625 1.6464844 C 3.2043352 1.6955969 3.0653073 1.7608473 2.9277344 1.8320312 C 2.8501607 1.8721693 2.7644279 1.9495844 2.671875 1.9140625 C 2.5942656 1.8842754 2.5358185 1.8073029 2.4785156 1.75 L 2.1347656 1.40625 C 2.0524341 1.3239141 1.9462357 1.2302816 1.8300781 1.3203125 C 1.6673716 1.4464224 1.5264448 1.6199832 1.3808594 1.765625 C 1.3121424 1.8343686 1.2531093 1.9129535 1.3007812 2.0136719 C 1.3317618 2.0791263 1.4026568 2.1331254 1.453125 2.1835938 L 1.7832031 2.5117188 C 1.8502471 2.5787627 1.9541736 2.659525 1.9179688 2.7675781 C 1.8905977 2.8492681 1.8314499 2.9230381 1.7929688 3 C 1.7223544 3.1412287 1.6634806 3.287863 1.6191406 3.4394531 C 1.5912243 3.5348926 1.5800103 3.6562171 1.4785156 3.703125 C 1.4099017 3.734837 1.3198006 3.7207031 1.2460938 3.7207031 L 0.765625 3.7207031 C 0.66015821 3.7207031 0.52680996 3.7065655 0.484375 3.8320312 C 0.45286 3.9252143 0.4765625 4.0621164 0.4765625 4.1601562 L 0.4765625 4.4804688 C 0.4765625 4.5311888 0.46775245 4.593055 0.48828125 4.640625 C 0.54021645 4.7609719 0.66546191 4.7460938 0.7734375 4.7460938 L 1.2617188 4.7460938 C 1.3366068 4.7460938 1.4269577 4.7314034 1.4941406 4.7714844 C 1.5852656 4.8258494 1.5913671 4.9429393 1.6191406 5.0351562 C 1.6638566 5.1836247 1.7236699 5.3281979 1.7929688 5.4667969 C 1.8325487 5.5459569 1.902933 5.6277928 1.921875 5.7148438 C 1.943932 5.8162125 1.8455692 5.8927121 1.7832031 5.9550781 L 1.421875 6.3164062 C 1.369365 6.3689162 1.2969494 6.4211951 1.2871094 6.5 C 1.2743694 6.6020257 1.339599 6.6579584 1.40625 6.7246094 C 1.5436469 6.8620061 1.6786458 7.0411325 1.8378906 7.1523438 C 1.9579074 7.2361597 2.0611082 7.1342044 2.1425781 7.0527344 L 2.5429688 6.6523438 C 2.6008676 6.5944487 2.6686667 6.5211661 2.7597656 6.546875 C 2.8437776 6.570584 2.9228533 6.6315405 3 6.671875 C 3.1316051 6.740681 3.2734653 6.8000546 3.4160156 6.8417969 C 3.5110696 6.8696309 3.63982 6.8796444 3.6953125 6.9726562 C 3.7375095 7.0433863 3.7207031 7.1417901 3.7207031 7.2207031 L 3.7207031 7.6621094 C 3.7207031 7.7295034 3.7080856 7.8145534 3.7304688 7.8789062 C 3.7503297 7.9360203 3.8041182 7.9822812 3.8652344 7.9882812 C 4.0196605 8.0034532 4.1826675 7.9902344 4.3378906 7.9902344 C 4.4263346 7.9902344 4.5307086 8.0051711 4.6171875 7.9863281 C 4.7564591 7.9559928 4.7460938 7.8104404 4.7460938 7.7011719 L 4.7460938 7.1484375 C 4.7460938 7.0515315 4.7462768 6.9586608 4.8417969 6.9042969 C 4.9198909 6.8598499 5.029619 6.8488785 5.1152344 6.8203125 C 5.262599 6.7711435 5.4018066 6.7067555 5.5390625 6.6347656 C 5.6178965 6.5934176 5.7008127 6.517142 5.7949219 6.5507812 C 5.8691939 6.5773293 5.9242912 6.65476 5.9785156 6.7089844 L 6.3320312 7.0605469 C 6.4143622 7.1428829 6.5205608 7.2365164 6.6367188 7.1464844 C 6.7994255 7.0203746 6.9383994 6.8468138 7.0839844 6.7011719 C 7.1527014 6.6324284 7.2136875 6.5518903 7.1660156 6.4511719 C 7.1350351 6.3857179 7.0621868 6.333671 7.0117188 6.2832031 L 6.6835938 5.9550781 C 6.6165509 5.8880348 6.5126221 5.8072713 6.5488281 5.6992188 C 6.5762005 5.617529 6.6353467 5.5437596 6.6738281 5.4667969 C 6.747283 5.3198869 6.8053104 5.1665411 6.8535156 5.0097656 C 6.8827673 4.914632 6.8904455 4.8027336 6.9960938 4.7597656 C 7.0643387 4.7320106 7.1561867 4.7460938 7.2285156 4.7460938 L 7.7011719 4.7460938 C 7.8089141 4.7460938 7.9372193 4.7599665 7.9824219 4.6347656 C 8.0043189 4.5741206 7.9902344 4.4896214 7.9902344 4.4257812 L 7.9902344 3.9765625 C 7.9902344 3.8968475 7.9989908 3.8202668 7.9335938 3.7617188 C 7.8720549 3.7066277 7.7852643 3.7207031 7.7089844 3.7207031 L 7.1894531 3.7207031 C 7.0819822 3.7207031 6.9661418 3.733664 6.9042969 3.625 C 6.8695999 3.5640372 6.8630829 3.4826376 6.8417969 3.4160156 C 6.7939212 3.2661714 6.7378552 3.1118003 6.6601562 2.9746094 C 6.61716 2.8986915 6.5254989 2.7868994 6.5449219 2.6953125 C 6.562114 2.6142452 6.6357423 2.5595702 6.6914062 2.5039062 L 7.0449219 2.1503906 C 7.1197414 2.0755707 7.2211378 1.9897807 7.1699219 1.8710938 C 7.1169642 1.7483703 6.95505 1.6366907 6.8613281 1.5429688 C 6.7873412 1.4689819 6.7147912 1.374433 6.6289062 1.3144531 C 6.5088897 1.2306369 6.4056886 1.3325926 6.3242188 1.4140625 L 5.9238281 1.8144531 C 5.8626943 1.8755822 5.7937366 1.9454126 5.6992188 1.9160156 C 5.6146319 1.8897079 5.5380803 1.8286105 5.4589844 1.7890625 C 5.3301259 1.724633 5.1954733 1.6715671 5.0585938 1.6269531 C 4.9638631 1.5960771 4.8378547 1.591614 4.7773438 1.5019531 C 4.7290778 1.430436 4.7460938 1.3278916 4.7460938 1.2460938 L 4.7460938 0.8046875 C 4.7460938 0.7372937 4.7587011 0.65419619 4.7363281 0.58984375 C 4.7164681 0.53272965 4.6626797 0.48256749 4.6015625 0.4765625 C 4.5629555 0.4727695 4.5237915 0.47149313 4.484375 0.47070312 z M 4.2324219 2.7519531 A 1.4805275 1.4805275 0 0 1 5.7128906 4.2324219 A 1.4805275 1.4805275 0 0 1 4.2324219 5.7128906 A 1.4805275 1.4805275 0 0 1 2.7519531 4.2324219 A 1.4805275 1.4805275 0 0 1 4.2324219 2.7519531 z "
       d="m 4.484375,0.47070312 c -0.118249,-0.00237 -0.2390512,0.005859 -0.3554688,0.005859 -0.088444,0 -0.1928179,-0.0149341 -0.2792968,0.003906 C 3.7103339,0.51081047 3.7207031,0.65635602 3.7207031,0.765625 V 1.3183594 C 3.7207031,1.4152654 3.7205198,1.5081361 3.625,1.5625 3.5467095,1.607058 3.4373224,1.6178764 3.3515625,1.6464844 3.2043352,1.6955969 3.0653073,1.7608473 2.9277344,1.8320312 2.8501607,1.8721693 2.7644279,1.9495844 2.671875,1.9140625 2.5942656,1.8842754 2.5358185,1.8073029 2.4785156,1.75 L 2.1347656,1.40625 C 2.0524341,1.3239141 1.9462357,1.2302816 1.8300781,1.3203125 1.6673716,1.4464224 1.5264448,1.6199832 1.3808594,1.765625 1.3121424,1.8343686 1.2531093,1.9129535 1.3007812,2.0136719 1.3317618,2.0791263 1.4026568,2.1331254 1.453125,2.1835938 l 0.3300781,0.328125 c 0.067044,0.067044 0.1709705,0.1478062 0.1347657,0.2558593 -0.027371,0.08169 -0.086519,0.15546 -0.125,0.2324219 -0.070614,0.1412287 -0.1294882,0.287863 -0.1738282,0.4394531 -0.027916,0.095439 -0.03913,0.216764 -0.140625,0.2636719 -0.068614,0.031712 -0.158715,0.017578 -0.2324218,0.017578 H 0.765625 c -0.10546679,0 -0.23881504,-0.014138 -0.28125,0.1113281 -0.031515,0.093183 -0.007813,0.2300852 -0.007813,0.328125 v 0.3203126 c 0,0.05072 -0.00881,0.1125862 0.0117188,0.1601562 0.0519352,0.1203469 0.17718066,0.1054688 0.28515625,0.1054688 h 0.4882813 c 0.074888,0 0.1652389,-0.01469 0.2324218,0.025391 0.091125,0.054365 0.097227,0.1714549 0.125,0.2636718 0.044716,0.1484685 0.1045293,0.2930417 0.1738282,0.4316407 0.03958,0.07916 0.1099642,0.1609959 0.1289062,0.2480469 0.022057,0.1013687 -0.076306,0.1778683 -0.1386719,0.2402343 L 1.421875,6.3164062 C 1.369365,6.3689162 1.2969494,6.4211951 1.2871094,6.5 1.2743694,6.6020257 1.339599,6.6579584 1.40625,6.7246094 1.5436469,6.8620061 1.6786458,7.0411325 1.8378906,7.1523438 1.9579074,7.2361597 2.0611082,7.1342044 2.1425781,7.0527344 L 2.5429688,6.6523438 C 2.6008676,6.5944487 2.6686667,6.5211661 2.7597656,6.546875 2.8437776,6.570584 2.9228533,6.6315405 3,6.671875 c 0.1316051,0.068806 0.2734653,0.1281796 0.4160156,0.1699219 0.095054,0.027834 0.2238044,0.037847 0.2792969,0.1308593 0.042197,0.07073 0.025391,0.1691339 0.025391,0.2480469 v 0.4414063 c 0,0.067394 -0.012618,0.152444 0.00977,0.2167968 0.019861,0.057114 0.073649,0.103375 0.1347656,0.109375 0.1544261,0.015172 0.3174331,0.00195 0.4726562,0.00195 0.088444,0 0.192818,0.014937 0.2792969,-0.00391 C 4.7564591,7.9559928 4.7460938,7.8104404 4.7460938,7.7011719 V 7.1484375 c 0,-0.096906 1.83e-4,-0.1897767 0.095703,-0.2441406 C 4.9198909,6.8598499 5.029619,6.8488785 5.1152344,6.8203125 5.262599,6.7711435 5.4018066,6.7067555 5.5390625,6.6347656 5.6178965,6.5934176 5.7008127,6.517142 5.7949219,6.5507812 5.8691939,6.5773293 5.9242912,6.65476 5.9785156,6.7089844 l 0.3535156,0.3515625 c 0.082331,0.082336 0.1885296,0.1759695 0.3046876,0.085937 0.1627067,-0.1261098 0.3016806,-0.2996706 0.4472656,-0.4453125 0.068717,-0.068744 0.1297031,-0.1492816 0.082031,-0.25 C 7.1350351,6.3857179 7.0621868,6.333671 7.0117188,6.2832031 L 6.6835938,5.9550781 C 6.6165509,5.8880348 6.5126221,5.8072713 6.5488281,5.6992188 c 0.027372,-0.08169 0.086519,-0.1554592 0.125,-0.2324219 0.073455,-0.14691 0.1314823,-0.3002558 0.1796875,-0.4570313 0.029252,-0.095134 0.03693,-0.207032 0.1425782,-0.25 0.068245,-0.027755 0.1600929,-0.013672 0.2324218,-0.013672 h 0.4726563 c 0.1077422,0 0.2360474,0.013873 0.28125,-0.1113282 0.021897,-0.060645 0.00781,-0.1451442 0.00781,-0.2089844 V 3.9765625 c 0,-0.079715 0.00876,-0.1562957 -0.056641,-0.2148437 C 7.8720549,3.7066277 7.7852643,3.7207031 7.7089844,3.7207031 H 7.1894531 C 7.0819822,3.7207031 6.9661418,3.733664 6.9042969,3.625 6.8695999,3.5640372 6.8630829,3.4826376 6.8417969,3.4160156 6.7939212,3.2661714 6.7378552,3.1118003 6.6601562,2.9746094 6.61716,2.8986915 6.5254989,2.7868994 6.5449219,2.6953125 6.562114,2.6142452 6.6357423,2.5595702 6.6914062,2.5039062 L 7.0449219,2.1503906 c 0.074819,-0.07482 0.1762159,-0.1606099 0.125,-0.2792968 C 7.1169642,1.7483703 6.95505,1.6366907 6.8613281,1.5429688 6.7873412,1.4689819 6.7147912,1.374433 6.6289062,1.3144531 6.5088897,1.2306369 6.4056886,1.3325926 6.3242188,1.4140625 L 5.9238281,1.8144531 C 5.8626943,1.8755822 5.7937366,1.9454126 5.6992188,1.9160156 5.6146319,1.8897079 5.5380803,1.8286105 5.4589844,1.7890625 5.3301259,1.724633 5.1954733,1.6715671 5.0585938,1.6269531 4.9638631,1.5960771 4.8378547,1.591614 4.7773438,1.5019531 4.7290778,1.430436 4.7460938,1.3278916 4.7460938,1.2460938 V 0.8046875 c 0,-0.0673938 0.012607,-0.15049131 -0.00977,-0.21484375 C 4.7164681,0.53272965 4.6626797,0.48256749 4.6015625,0.4765625 4.5629555,0.4727695 4.5237915,0.47149313 4.484375,0.47070312 Z M 4.2324219,2.7519531 A 1.4805275,1.4805275 0 0 1 5.7128906,4.2324219 1.4805275,1.4805275 0 0 1 4.2324219,5.7128906 1.4805275,1.4805275 0 0 1 2.7519531,4.2324219 1.4805275,1.4805275 0 0 1 4.2324219,2.7519531 Z"
       transform="matrix(1.0444248,0,0,1.0444248,-0.18648758,-0.18809032)" /><path
       id="path1"
       style="fill:#000000;stroke:none"
       d="M 4.3599405 0.12660726 C 4.2812594 0.12832542 4.2029497 0.13229166 4.1289468 0.13229166 C 3.9998372 0.13229166 3.8614472 0.11709852 3.7367227 0.15657958 C 3.6304325 0.19022495 3.5371727 0.25682937 3.4726561 0.34829914 C 3.3755312 0.4860005 3.376538 0.64383573 3.376538 0.80511879 L 3.3760212 1.2857096 C 3.2227263 1.3083486 3.0670857 1.3876628 2.9274698 1.4515909 C 2.8865728 1.4703169 2.7947477 1.5378378 2.7512532 1.5285888 C 2.6930095 1.516204 2.6244241 1.4146789 2.5833048 1.3735595 C 2.4562706 1.2465252 2.3254805 1.0667986 2.1585245 0.99270423 C 1.7677727 0.81929006 1.5080886 1.1589317 1.2614217 1.4055989 C 1.1011471 1.5658735 0.92497245 1.7179078 0.94206133 1.9662882 C 0.95981231 2.2242891 1.1719024 2.381648 1.3415201 2.5512654 C 1.3894841 2.5992293 1.5142563 2.683851 1.5285888 2.7512532 C 1.5379988 2.7955041 1.471495 2.8784636 1.453658 2.9197183 C 1.3912801 3.0639942 1.3089081 3.2189401 1.2857096 3.3760212 L 0.82113848 3.3760212 C 0.64553316 3.3760212 0.4799826 3.3741252 0.33227945 3.484025 C 0.065460816 3.6825525 0.13229166 4.05478 0.13229166 4.3454711 C 0.13229166 4.4721794 0.11782762 4.6075229 0.15657958 4.7299437 C 0.19014055 4.8359656 0.25705403 4.9295307 0.34829914 4.9940103 C 0.48586721 5.0912252 0.64393455 5.0901284 0.80511879 5.0901284 L 1.2857096 5.0901284 C 1.3089586 5.248138 1.3909428 5.4018929 1.453658 5.5469481 C 1.471327 5.587814 1.5373218 5.6712394 1.5285888 5.7148965 C 1.5152268 5.7816934 1.3889134 5.8680079 1.3415201 5.915401 C 1.176388 6.0805339 0.96671077 6.2344656 0.9425781 6.4838418 C 0.91730812 6.7449711 1.1030507 6.9095327 1.2733073 7.0750201 C 1.5250784 7.3197392 1.7671478 7.6383306 2.1585245 7.4734454 C 2.3279005 7.4020875 2.4635762 7.2123184 2.5910562 7.0848386 C 2.6304542 7.0454407 2.6953202 6.9499711 2.7512532 6.9380776 C 2.7947481 6.9288276 2.8865726 6.9963495 2.9274698 7.0150755 C 3.0666423 7.0787994 3.2232941 7.1584018 3.3760212 7.1809568 L 3.3760212 7.6615476 C 3.3760212 7.8228306 3.3755313 7.9801487 3.4726561 8.1178505 C 3.5371731 8.2093204 3.6304327 8.2764409 3.7367227 8.3100868 C 3.8614467 8.3495688 3.999838 8.3343747 4.1289468 8.3343747 C 4.4247056 8.3343747 4.7871613 8.3978905 4.9883259 8.1261187 C 5.0908976 7.9875465 5.0901284 7.8259927 5.0901284 7.6615476 L 5.0901284 7.1809568 C 5.246908 7.1578029 5.4029064 7.0747688 5.5469481 7.0124916 C 5.5878136 6.994823 5.6712394 6.9293447 5.7148965 6.9380776 C 5.7703978 6.9491801 5.8361343 7.0458796 5.8750934 7.0848386 C 6.0025737 7.2123189 6.1382491 7.4020878 6.3076251 7.4734454 C 6.705433 7.6410404 6.9533029 7.3119758 7.204728 7.0605507 C 7.3645468 6.9007314 7.5416524 6.7476555 7.5246051 6.4998614 C 7.506867 6.2420291 7.2940206 6.0847916 7.1246295 5.915401 C 7.0766658 5.8674374 6.9524102 5.7822986 6.9380776 5.7148965 C 6.9288289 5.6714017 6.9963494 5.5795768 7.0150755 5.5386798 C 7.0788007 5.399507 7.1584018 5.2428561 7.1809568 5.0901284 L 7.6532794 5.0901284 C 7.8216702 5.0901284 7.9832162 5.0911596 8.1261187 4.9883259 C 8.3992921 4.7917489 8.3343747 4.4220441 8.3343747 4.1289468 C 8.3343747 4.0026794 8.3493466 3.8668475 8.3126706 3.7444742 C 8.2807 3.6377972 8.2159277 3.5448173 8.1261187 3.4783405 C 7.9872783 3.3755713 7.8264146 3.3760212 7.6615476 3.3760212 L 7.1809568 3.3760212 C 7.157708 3.2180113 7.0752068 3.0647734 7.0124916 2.9197183 C 6.994823 2.8788517 6.9293447 2.7949118 6.9380776 2.7512532 C 6.9514388 2.6844567 7.0772368 2.5986581 7.1246295 2.5512654 C 7.2944538 2.3814412 7.5069213 2.2242705 7.5246051 1.9662882 C 7.5415967 1.7184075 7.3654761 1.5585957 7.204728 1.3978474 C 6.9596593 1.1527788 6.6940176 0.82122456 6.3076251 0.99270423 C 6.140802 1.0667395 6.0101908 1.2467305 5.8833616 1.3735595 C 5.8427082 1.414213 5.772673 1.5170321 5.7148965 1.5285888 C 5.6712389 1.5373217 5.5878141 1.4713267 5.5469481 1.453658 C 5.4029064 1.3913814 5.246908 1.3088636 5.0901284 1.2857096 L 5.0901284 0.80511879 C 5.0901284 0.64067364 5.0908971 0.47912023 4.9883259 0.34054768 C 4.8373809 0.13662313 4.5959835 0.12145278 4.3599405 0.12660726 z M 4.4844807 0.47077228 C 4.523897 0.47156228 4.5631796 0.4736971 4.6017862 0.47749022 C 4.6629031 0.48349521 4.7173181 0.53199721 4.7371784 0.58911131 C 4.7595564 0.65346375 4.7459634 0.73772498 4.7459634 0.80511879 L 4.7459634 1.245402 C 4.7459634 1.3271999 4.7287033 1.4302 4.7769693 1.5017171 C 4.8374802 1.591378 4.9633584 1.5964148 5.058089 1.6272908 C 5.1949686 1.6719048 5.3297229 1.7246085 5.4585814 1.789038 C 5.5376773 1.828586 5.61429 1.8903711 5.6988768 1.9166788 C 5.7933947 1.9460758 5.8620187 1.8754886 5.9231525 1.8143595 L 6.3236448 1.4138671 C 6.4051147 1.3323972 6.5080025 1.231349 6.628019 1.3151652 C 6.7139039 1.3751451 6.786576 1.4680379 6.8605629 1.5420247 C 6.9542848 1.6357466 7.1171471 1.7479633 7.1701048 1.8706868 C 7.2213207 1.9893739 7.1193505 2.0759531 7.044531 2.150773 L 6.6920978 2.5032063 C 6.6364338 2.5588702 6.5614953 2.6143753 6.5443032 2.6954426 C 6.5248802 2.7870295 6.6170621 2.899611 6.6600584 2.9755289 C 6.7377573 3.1127198 6.7940837 3.2664846 6.8419594 3.4163288 C 6.8632454 3.4829508 6.8703077 3.5636222 6.9050047 3.6245848 C 6.9668496 3.733249 7.0817541 3.720703 7.189225 3.720703 L 7.7096067 3.720703 C 7.7858866 3.720703 7.8718257 3.70747 7.9333656 3.7625609 C 7.9987666 3.8211089 7.9896929 3.8973035 7.9896929 3.9770181 L 7.9896929 4.4255695 C 7.9896929 4.4894095 8.0038385 4.5731807 7.9819415 4.6338255 C 7.9367389 4.7590266 7.8090807 4.7459634 7.7013385 4.7459634 L 7.2290159 4.7459634 C 7.156687 4.7459634 7.0647169 4.7311275 6.9964719 4.7588825 C 6.8908236 4.8018505 6.8820632 4.9148964 6.8528115 5.01003 C 6.8046063 5.1668055 6.7469492 5.3199396 6.6734943 5.4668496 C 6.6350129 5.5438123 6.5763265 5.6171871 6.5489541 5.6988768 C 6.5127481 5.8069294 6.6173034 5.8881486 6.6843463 5.9551919 L 7.0124916 6.283854 C 7.0629596 6.3343219 7.1344734 6.3863484 7.1654539 6.4518024 C 7.2131258 6.5525208 7.1535556 6.6316225 7.0848386 6.700366 C 6.9392536 6.8460079 6.7989939 7.0197069 6.6362872 7.1458168 C 6.5201293 7.2358487 6.4142442 7.1428866 6.331913 7.0605507 L 5.9794798 6.7081175 C 5.9252554 6.6538931 5.8692669 6.5780861 5.7949949 6.5515379 C 5.7008857 6.5178989 5.6175136 6.592872 5.5386798 6.6342202 C 5.4014239 6.7062101 5.2617809 6.7710866 5.1144163 6.8202553 C 5.0288009 6.8488213 4.920176 6.8605577 4.8420816 6.9050047 C 4.7465613 6.9593686 4.7459634 7.0520118 4.7459634 7.1489174 L 4.7459634 7.7013385 C 4.7459634 7.810607 4.7570822 7.9562509 4.6178058 7.9865924 C 4.5313269 8.0054323 4.4256469 7.9902097 4.3372028 7.9902097 C 4.1819797 7.9902097 4.0193063 8.0043486 3.8648802 7.9891762 C 3.8037643 7.9831762 3.7493486 7.9351862 3.729488 7.8780719 C 3.70711 7.8137189 3.720703 7.7289419 3.720703 7.6615476 L 3.720703 7.2207477 C 3.720703 7.1418347 3.7370618 7.0434307 3.6948648 6.9727008 C 3.6393723 6.8796886 3.5113832 6.8687604 3.4163288 6.8409259 C 3.2737785 6.7991836 3.1314219 6.741267 2.9998168 6.6724607 C 2.9226701 6.6321261 2.8435335 6.5700795 2.7595214 6.5463702 C 2.6684225 6.5206613 2.6008966 6.5944115 2.5429972 6.6523069 L 2.1425048 7.0527993 C 2.0610349 7.1342692 1.9581474 7.2353173 1.8381306 7.1515012 C 1.6788858 7.04029 1.5429958 6.8615339 1.4055989 6.7241372 C 1.338948 6.6574862 1.2745196 6.6018871 1.2872599 6.4998614 C 1.2970999 6.4210565 1.3691086 6.3684032 1.4216186 6.3158934 L 1.7823201 5.9551919 C 1.844686 5.8928259 1.9444203 5.8162652 1.9223632 5.7148965 C 1.9034212 5.6278456 1.8327523 5.5460093 1.7931721 5.4668496 C 1.7238732 5.3282506 1.6647724 5.1827864 1.6200561 5.0343179 C 1.5922821 4.942101 1.5850907 4.8261667 1.4939656 4.7718016 C 1.4267827 4.7317206 1.3363099 4.7459634 1.2614217 4.7459634 L 0.7730794 4.7459634 C 0.66510381 4.7459634 0.53976075 4.7619239 0.48782551 4.641577 C 0.46729653 4.594007 0.47645669 4.5321006 0.47645669 4.4813801 L 0.47645669 4.1609862 C 0.47645669 4.0629463 0.45217642 3.9260242 0.48369139 3.8328409 C 0.52612635 3.7073752 0.65934438 3.720703 0.76481117 3.720703 L 1.245402 3.720703 C 1.3191089 3.720703 1.409332 3.734845 1.4779459 3.703133 C 1.5794406 3.6562251 1.5905895 3.5355395 1.6185058 3.4401 C 1.6628458 3.2885099 1.7225578 3.1410455 1.7931721 2.9998168 C 1.8316531 2.9228549 1.8903409 2.8489626 1.9177123 2.7672729 C 1.9539173 2.6592198 1.8493639 2.5780016 1.7823201 2.5109578 L 1.453658 2.1828124 C 1.4031898 2.1323442 1.3321931 2.0798017 1.3012125 2.0143473 C 1.2535406 1.9136289 1.3131108 1.835044 1.3818278 1.7663004 C 1.5274132 1.6206586 1.6676727 1.4469595 1.8303792 1.3208496 C 1.9465368 1.2308187 2.0524219 1.323263 2.1347534 1.4055989 L 2.4789184 1.7502807 C 2.5362213 1.8075836 2.5935453 1.8848247 2.6711547 1.9146118 C 2.7637076 1.9501337 2.8498961 1.8725842 2.9274698 1.8324462 C 3.0650427 1.7612623 3.2050228 1.6955236 3.3522501 1.6464111 C 3.43801 1.6178031 3.5462945 1.6062197 3.6245848 1.5616617 C 3.7201048 1.5072978 3.720703 1.4146551 3.720703 1.317749 L 3.720703 0.76481117 C 3.720703 0.65554219 3.7095851 0.510416 3.8488606 0.48007404 C 3.9353395 0.46123406 4.04102 0.47697346 4.1294636 0.47697346 C 4.2458811 0.47697346 4.3662317 0.46840229 4.4844807 0.47077228 z " /><path
       id="circle5"
       style="color:#000000;overflow:visible;fill:#000000;stroke:none;stroke-width:0.132292;stroke-miterlimit:5;-inkscape-stroke:none"
       d="M 4.2333332 2.5135416 A 1.7197917 1.7197917 0 0 0 2.5135416 4.2333332 A 1.7197917 1.7197917 0 0 0 4.2333332 5.9531248 A 1.7197917 1.7197917 0 0 0 5.9531248 4.2333332 A 1.7197917 1.7197917 0 0 0 4.2333332 2.5135416 z M 4.2333332 2.9104166 A 1.3229166 1.3229166 0 0 1 5.5562498 4.2333332 A 1.3229166 1.3229166 0 0 1 4.2333332 5.5562498 A 1.3229166 1.3229166 0 0 1 2.9104166 4.2333332 A 1.3229166 1.3229166 0 0 1 4.2333332 2.9104166 z " /></g></svg>
