<?xml version="1.0" encoding="UTF-8" standalone="no"?>
<!-- Created with Inkscape (http://www.inkscape.org/) -->

<svg
   width="32"
   height="31.999998"
   viewBox="0 0 8.4666665 8.4666661"
   version="1.1"
   id="svg5"
   xml:space="preserve"
   inkscape:version="1.3 (0e150ed6c4, 2023-07-21)"
   sodipodi:docname="icon_day.svg"
   inkscape:export-filename="V6\icons\icon_start.svg"
   inkscape:export-xdpi="103.358"
   inkscape:export-ydpi="103.358"
   xmlns:inkscape="http://www.inkscape.org/namespaces/inkscape"
   xmlns:sodipodi="http://sodipodi.sourceforge.net/DTD/sodipodi-0.dtd"
   xmlns="http://www.w3.org/2000/svg"
   xmlns:svg="http://www.w3.org/2000/svg"><sodipodi:namedview
     id="namedview7"
     pagecolor="#ffffff"
     bordercolor="#666666"
     borderopacity="1.0"
     inkscape:showpageshadow="2"
     inkscape:pageopacity="0.0"
     inkscape:pagecheckerboard="true"
     inkscape:deskcolor="#d1d1d1"
     inkscape:document-units="px"
     showgrid="false"
     inkscape:zoom="13.326131"
     inkscape:cx="32.755193"
     inkscape:cy="16.471397"
     inkscape:window-width="1920"
     inkscape:window-height="1000"
     inkscape:window-x="-11"
     inkscape:window-y="-11"
     inkscape:window-maximized="1"
     inkscape:current-layer="layer1"
     showguides="true" /><defs
     id="defs2"><inkscape:path-effect
       effect="fillet_chamfer"
       id="path-effect35"
       is_visible="true"
       lpeversion="1"
       nodesatellites_param="F,0,0,1,0,0.953381,0,1 @ F,0,0,1,0,0.97447696,0,1 @ F,0,0,1,0,1.1563433,0,1 @ F,0,0,1,0,0.74753081,0,1 @ F,0,0,1,0,0.37554865,0,1 @ F,0,0,1,0,0.46131822,0,1"
       radius="0"
       unit="px"
       method="auto"
       mode="F"
       chamfer_steps="1"
       flexible="false"
       use_knot_distance="true"
       apply_no_radius="true"
       apply_with_radius="true"
       only_selected="false"
       hide_knots="false" /></defs><g
     inkscape:label="Layer 1"
     inkscape:groupmode="layer"
     id="layer1"
     transform="translate(-129.66141,-127.25538)"><rect
       style="color:#000000;overflow:visible;fill:#808080;fill-opacity:1;stroke:none;stroke-width:0.079375;stroke-linejoin:round"
       id="rect3"
       width="7.4083428"
       height="7.4083266"
       x="130.45515"
       y="128.04913" /><rect
       style="color:#000000;overflow:visible;fill:#dc0000;stroke-width:0.079375;stroke-linejoin:round"
       id="rect1"
       width="7.4083333"
       height="1.5875"
       x="130.19058"
       y="127.78455" /><rect
       style="color:#000000;overflow:visible;fill:#e5e5e5;fill-opacity:1;stroke:none;stroke-width:0.079375;stroke-linejoin:round"
       id="rect4"
       width="7.4083304"
       height="5.8208303"
       x="130.19058"
       y="129.37206" /><text
       xml:space="preserve"
       style="font-style:normal;font-variant:normal;font-weight:normal;font-stretch:normal;font-size:4.59766px;line-height:100%;font-family:Impact;-inkscape-font-specification:Impact;letter-spacing:0px;word-spacing:0px;writing-mode:lr-tb;fill:#555555;fill-opacity:1;stroke:none;stroke-width:0.287353px;stroke-linecap:butt;stroke-linejoin:miter;stroke-opacity:1"
       x="142.38354"
       y="134.13455"
       id="text2"><tspan
         sodipodi:role="line"
         id="tspan2"
         style="font-style:normal;font-variant:normal;font-weight:normal;font-stretch:normal;font-family:Impact;-inkscape-font-specification:Impact;fill:#555555;fill-opacity:1;stroke:none;stroke-width:0.287353px"
         x="142.38354"
         y="134.13455">27</tspan></text><path
       id="text1"
       style="font-style:normal;font-variant:normal;font-weight:normal;font-stretch:normal;font-size:4.59766px;line-height:100%;font-family:Impact;-inkscape-font-specification:Impact;letter-spacing:0px;word-spacing:0px;writing-mode:lr-tb;fill:#555555;fill-opacity:1;stroke:none;stroke-width:0.287353px;stroke-linecap:butt;stroke-linejoin:miter;stroke-opacity:1"
       d="m 132.90256,130.43038 c -0.18409,0 -0.34217,0.029 -0.47388,0.0873 -0.1317,0.0584 -0.23859,0.14464 -0.32091,0.25839 -0.0823,0.11374 -0.13407,0.22954 -0.15503,0.34778 -0.0209,0.11674 -0.0315,0.27705 -0.0315,0.48059 v 0.13229 h 0.81287 v -0.34572 c 0,-0.16013 0.0167,-0.26703 0.0496,-0.32091 0.0344,-0.0539 0.0857,-0.0806 0.15451,-0.0806 0.0688,0 0.12004,0.0245 0.15296,0.0739 0.0344,0.0479 0.0517,0.12136 0.0517,0.22014 0,0.12871 -0.0562,0.30798 -0.16846,0.53847 -0.11075,0.22898 -0.462,0.82686 -1.05317,1.79369 v 0.51883 h 1.99574 v -0.6196 h -0.99425 c 0.50885,-0.75281 0.81502,-1.24545 0.91829,-1.47743 0.10476,-0.23198 0.1571,-0.45188 0.1571,-0.65991 0,-0.27388 -0.093,-0.4999 -0.27854,-0.678 -0.18409,-0.17959 -0.45632,-0.26923 -0.817,-0.26923 z m 1.23248,0.0698 v 0.65319 h 0.89555 l -0.6444,2.98122 h 0.90278 l 0.5793,-2.84221 v -0.7922 z" /></g></svg>
