<?xml version="1.0" encoding="UTF-8" standalone="no"?>
<!-- Created with Inkscape (http://www.inkscape.org/) -->

<svg
   width="32.000015"
   height="31.999998"
   viewBox="0 0 8.4666705 8.4666661"
   version="1.1"
   id="svg5"
   xml:space="preserve"
   inkscape:version="1.3 (0e150ed6c4, 2023-07-21)"
   sodipodi:docname="icon_images.svg"
   xmlns:inkscape="http://www.inkscape.org/namespaces/inkscape"
   xmlns:sodipodi="http://sodipodi.sourceforge.net/DTD/sodipodi-0.dtd"
   xmlns="http://www.w3.org/2000/svg"
   xmlns:svg="http://www.w3.org/2000/svg"><sodipodi:namedview
     id="namedview7"
     pagecolor="#ffffff"
     bordercolor="#666666"
     borderopacity="1.0"
     inkscape:showpageshadow="2"
     inkscape:pageopacity="0.0"
     inkscape:pagecheckerboard="true"
     inkscape:deskcolor="#d1d1d1"
     inkscape:document-units="px"
     showgrid="false"
     inkscape:zoom="22.156251"
     inkscape:cx="16.022566"
     inkscape:cy="15.999999"
     inkscape:window-width="1920"
     inkscape:window-height="1000"
     inkscape:window-x="-11"
     inkscape:window-y="-11"
     inkscape:window-maximized="1"
     inkscape:current-layer="layer1"
     showguides="true" /><defs
     id="defs2" /><g
     inkscape:label="Layer 1"
     inkscape:groupmode="layer"
     id="layer1"
     transform="translate(-66.161442,-127.25538)"><g
       id="g1"
       transform="matrix(0.48387117,0,0,0.48387117,34.284387,65.816735)"
       style="stroke-width:2.06667"><rect
         style="color:#000000;overflow:visible;fill:#ababab;stroke-width:0.164042;stroke-linejoin:round"
         id="rect2"
         width="7.9375"
         height="7.9375"
         x="66.690605"
         y="127.78455"
         rx="1.0583333"
         ry="1.0583333" /><rect
         style="color:#000000;overflow:visible;fill:#ffffff;stroke-width:0.164042;stroke-linejoin:round"
         id="rect1"
         width="7.9375"
         height="7.9375"
         x="66.426025"
         y="127.51997"
         rx="1.0583333"
         ry="1.0583333" /><rect
         style="color:#000000;overflow:visible;fill:#7ab4e1;fill-opacity:1;stroke-width:0.164042;stroke-linejoin:round"
         id="rect3"
         width="6.3499999"
         height="5.2916665"
         x="67.219772"
         y="128.31372" /><path
         style="fill:#4f5d7a;fill-opacity:1;fill-rule:evenodd;stroke:none;stroke-width:0.546805px;stroke-linecap:butt;stroke-linejoin:miter;stroke-opacity:1"
         d="m 67.219772,133.60539 2.23758,-3.38847 2.125622,2.24504 0.633322,-0.41772 c 0.263673,-0.17391 0.559015,-0.0926 0.768503,0.0644 l 0.584972,0.43839 v 1.05833 z"
         id="path3"
         sodipodi:nodetypes="cccssccc" /><path
         id="path4"
         style="fill:#ffffff;fill-rule:evenodd;stroke:none;stroke-width:0.546805px;stroke-linecap:butt;stroke-linejoin:miter;stroke-opacity:1"
         d="m 69.457365,130.21696 -0.782898,1.18545 c 0.144603,0.24821 0.257348,0.45062 0.257348,0.45062 l 0.370521,-0.58549 0.835607,0.68109 0.256832,-0.45992 0.281637,0.0155 z" /><circle
         style="color:#000000;overflow:visible;fill:#f4ce56;fill-opacity:1;stroke:none;stroke-width:0.164042;stroke-linejoin:round"
         id="path5"
         cx="72.258049"
         cy="129.83926"
         r="0.79374999" /></g><g
       id="g10"
       transform="matrix(0.48387117,0,0,0.48387117,34.284387,70.050058)"
       style="stroke-width:2.06667"><rect
         style="color:#000000;overflow:visible;fill:#ababab;stroke-width:0.164042;stroke-linejoin:round"
         id="rect7"
         width="7.9375"
         height="7.9375"
         x="66.690605"
         y="127.78455"
         rx="1.0583333"
         ry="1.0583333" /><rect
         style="color:#000000;overflow:visible;fill:#ffffff;stroke-width:0.164042;stroke-linejoin:round"
         id="rect8"
         width="7.9375"
         height="7.9375"
         x="66.426025"
         y="127.51997"
         rx="1.0583333"
         ry="1.0583333" /></g><rect
       style="color:#000000;overflow:visible;fill:#ababab;stroke-width:0.0793752;stroke-linejoin:round"
       id="rect10"
       width="3.8407273"
       height="3.8407273"
       x="70.787384"
       y="131.88132"
       rx="0.51209694"
       ry="0.51209694" /><rect
       style="color:#000000;overflow:visible;fill:#ffffff;stroke-width:0.0793752;stroke-linejoin:round"
       id="rect11"
       width="3.8407273"
       height="3.8407273"
       x="70.659355"
       y="131.7533"
       rx="0.51209694"
       ry="0.51209694" /><g
       id="g27"><g
         id="g7"
         transform="matrix(0.48387117,0,0,0.48387117,38.51772,65.816735)"
         style="stroke-width:2.06667"><rect
           style="color:#000000;overflow:visible;fill:#ababab;stroke-width:0.164042;stroke-linejoin:round"
           id="rect4"
           width="7.9375"
           height="7.9375"
           x="66.690605"
           y="127.78455"
           rx="1.0583333"
           ry="1.0583333" /><rect
           style="color:#000000;overflow:visible;fill:#ffffff;stroke-width:0.164042;stroke-linejoin:round"
           id="rect5"
           width="7.9375"
           height="7.9375"
           x="66.426025"
           y="127.51997"
           rx="1.0583333"
           ry="1.0583333" /></g><g
         id="g26"><rect
           style="color:#000000;overflow:visible;fill:#9eff91;fill-opacity:1;stroke:none;stroke-width:0.223517;stroke-dasharray:none"
           id="rect25"
           width="2.8535872"
           height="2.316483"
           x="71.152931"
           y="128.02605" /><path
           style="fill:#face8d;fill-opacity:1;fill-rule:evenodd;stroke:#000000;stroke-width:0.0284478px;stroke-linecap:butt;stroke-linejoin:miter;stroke-opacity:1"
           d="m 72.131474,128.73921 c 0.03994,-0.007 0.624633,-0.15616 0.639158,-0.15253 0.01452,0.003 0.341371,0.24332 0.341371,0.24332 l -0.11258,0.57016 -0.148895,0.36679 -0.497527,0.10894 -0.105318,-0.19973 -0.181579,-0.61011 z"
           id="path22" /><path
           id="path20"
           style="fill:#d74871;stroke-width:0.107519"
           d="m 72.837406,129.44086 c -0.02679,0.008 -0.121651,0.23524 -0.233678,0.24253 -0.106847,0.007 -0.25138,-0.20004 -0.25138,-0.20004 l -0.323372,0.13396 c -0.04813,0.018 -0.156243,0.0402 -0.19296,0.0808 -0.05732,0.0635 -0.076,0.22541 -0.09796,0.27794 -0.03831,0.0917 -0.04919,0.27505 -0.03069,0.36645 h 1.74786 c 0.0067,-0.0331 0.0068,-0.0842 0.0018,-0.16287 -0.0094,-0.14728 0.03064,-0.43878 -0.06314,-0.50807 -0.09579,-0.0708 -0.551311,-0.17708 -0.553508,-0.22896 -6.8e-5,-0.001 -0.0012,-0.002 -0.0029,-0.001 z" /><path
           style="fill:#77554a;stroke-width:0.107519"
           d="m 72.011049,129.47833 c 0,-0.0926 -0.01988,-0.24597 -0.04417,-0.34079 -0.04727,-0.18455 -0.04739,-0.18375 0.07933,-0.54339 0.09219,-0.26165 0.119031,-0.29986 0.25782,-0.36705 0.205638,-0.0996 0.538106,-0.0693 0.68892,0.0626 0.08454,0.0739 0.241357,0.49574 0.241357,0.64917 0,0.0569 -0.02029,0.15935 -0.04508,0.22782 -0.03161,0.0872 -0.04042,0.17762 -0.02952,0.30227 0.0086,0.0977 0.0064,0.17755 -0.0047,0.17725 -0.01119,-3.2e-4 -0.08427,-0.017 -0.162504,-0.0372 -0.135332,-0.0349 -0.164456,-0.0418 -0.172811,-0.14089 -0.0062,-0.0726 0.01359,-0.14235 0.06501,-0.23008 0.04058,-0.0692 0.08126,-0.189 0.09039,-0.26611 0.01647,-0.13907 0.01561,-0.11916 -0.105877,-0.2085 -0.117055,-0.0861 -0.103787,-0.088 -0.170452,-0.0444 -0.03837,0.0251 -0.166246,0.0577 -0.284175,0.0723 -0.11793,0.0146 -0.20475,0.0341 -0.219568,0.0433 -0.04625,0.0285 0.0031,0.27155 0.07864,0.40052 0.03966,0.0677 0.07211,0.16731 0.07211,0.2214 0,0.0927 -0.02988,0.10094 -0.162261,0.14429 -0.07726,0.0252 -0.147667,0.0459 -0.156462,0.0459 -0.0088,0 -0.01599,-0.0758 -0.01599,-0.1684 z"
           id="path25" /></g></g><g
       id="g30"
       transform="translate(-9.1409301,-3.0555187)"><rect
         style="color:#000000;overflow:visible;fill:#f16c24;fill-opacity:1;stroke-width:0.0793752;stroke-linejoin:round"
         id="rect12-7"
         width="3.072582"
         height="2.5604849"
         x="75.951027"
         y="135.19289" /><circle
         style="color:#000000;overflow:visible;fill:#ff1919;fill-opacity:1;stroke:none;stroke-width:1.40352;stroke-dasharray:none"
         id="path27"
         cx="77.527145"
         cy="136.71272"
         r="0.52071404" /><rect
         style="color:#000000;overflow:visible;fill:#0026a0;fill-opacity:1;stroke:none;stroke-width:2.11667;stroke-dasharray:none"
         id="rect27"
         width="3.0725784"
         height="0.86332703"
         x="75.951027"
         y="136.89005" /><path
         id="path28"
         style="fill:#170222;stroke-width:0.484856"
         d="m 78.499652,136.35339 c 0.107579,-0.12337 0.253824,-0.0896 0.360214,-0.0752 -0.04286,4.9e-4 -0.18303,0.0635 -0.249176,0.0954 0.177624,0.003 0.243768,0.0899 0.348775,0.23005 -0.08832,-0.051 -0.24735,-0.11027 -0.28773,-0.11404 0.08574,0.0889 0.140189,0.25586 0.126825,0.40266 -0.04942,-0.15691 -0.146692,-0.27056 -0.245295,-0.37259 4.91e-4,0.23729 0.115887,0.71082 0.214694,0.94793 h -0.08744 c -0.08638,-0.23929 -0.187524,-0.69768 -0.186884,-0.94548 -0.188768,0.0618 -0.296155,0.35804 -0.296155,0.35804 0,0 0.0042,-0.2934 0.151581,-0.4041 -0.129174,-0.0266 -0.247462,0.0698 -0.34026,0.12076 0.07192,-0.1208 0.149854,-0.23564 0.401171,-0.22505 -0.03489,-0.0888 -0.190196,-0.1378 -0.190196,-0.1378 0.107762,0.005 0.212422,0.0163 0.279876,0.11946 z"
         sodipodi:nodetypes="cccccccccccccccc" /><ellipse
         style="color:#000000;overflow:visible;fill:#ff1919;fill-opacity:1;stroke:none;stroke-width:1.3894;stroke-dasharray:none"
         id="path29"
         cx="77.527145"
         cy="136.98451"
         rx="0.35485604"
         ry="0.020873886" /><ellipse
         style="color:#000000;overflow:visible;fill:#ff1919;fill-opacity:1;stroke:none;stroke-width:1.20218;stroke-dasharray:none"
         id="ellipse29"
         cx="77.527145"
         cy="137.09425"
         rx="0.26566762"
         ry="0.020873886" /><ellipse
         style="color:#000000;overflow:visible;fill:#ff1919;fill-opacity:1;stroke:none;stroke-width:0.914425;stroke-dasharray:none"
         id="ellipse30"
         cx="77.527145"
         cy="137.18318"
         rx="0.15370768"
         ry="0.020873886" /><path
         id="rect30"
         style="overflow:visible;fill:#170222;stroke-width:2.11667"
         d="m 75.951027,137.45322 c 0.996508,0.0738 1.964911,-0.19573 3.072578,0 v 0.30015 h -3.072578 z"
         sodipodi:nodetypes="ccccc" /></g><g
       id="g41"
       transform="translate(-4.2740873,-1.5267869)"><rect
         style="color:#000000;overflow:visible;fill:#7ab4e1;fill-opacity:1;stroke-width:0.0793752;stroke-linejoin:round"
         id="rect12-5"
         width="3.072582"
         height="2.5604849"
         x="75.317558"
         y="133.66415" /><rect
         style="color:#000000;font-variation-settings:normal;overflow:visible;opacity:1;vector-effect:none;fill:#6a8035;fill-opacity:1;stroke:none;stroke-width:0.264583px;stroke-linecap:butt;stroke-linejoin:miter;stroke-miterlimit:4;stroke-dasharray:none;stroke-dashoffset:0;stroke-opacity:1;-inkscape-stroke:none"
         id="rect40"
         width="3.0725784"
         height="1.059906"
         x="75.317558"
         y="135.16473" /><path
         style="fill:#f7f2ea;fill-opacity:1;fill-rule:evenodd;stroke:none;stroke-width:0.10209px;stroke-linecap:butt;stroke-linejoin:miter;stroke-opacity:1"
         d="m 76.724906,135.39642 -1.190858,0.005 -0.0081,-0.52294 0.491983,-0.33233 0.697247,0.28346 z"
         id="path30"
         sodipodi:nodetypes="cccccc" /><path
         style="font-variation-settings:normal;vector-effect:none;fill:#efe5d4;fill-opacity:1;fill-rule:evenodd;stroke:none;stroke-width:0.10209px;stroke-linecap:butt;stroke-linejoin:miter;stroke-miterlimit:4;stroke-dasharray:none;stroke-dashoffset:0;stroke-opacity:1;-inkscape-stroke:none;stop-color:#000000"
         d="m 76.724906,135.39642 -0.0098,-0.56692 0.421621,0.0279 0.01152,0.49764 z"
         id="path31"
         sodipodi:nodetypes="ccccc" /><path
         style="font-variation-settings:normal;vector-effect:none;fill:#f7f2ea;fill-opacity:1;fill-rule:evenodd;stroke:none;stroke-width:0.10209px;stroke-linecap:butt;stroke-linejoin:miter;stroke-miterlimit:4;stroke-dasharray:none;stroke-dashoffset:0;stroke-opacity:1;-inkscape-stroke:none;stop-color:#000000"
         d="m 77.148272,135.35507 0.723415,0.0161 v -0.52068 l -0.734933,0.007 z"
         id="path32"
         sodipodi:nodetypes="ccccc" /><path
         style="font-variation-settings:normal;vector-effect:none;fill:#efe5d4;fill-opacity:1;fill-rule:evenodd;stroke:none;stroke-width:0.10209px;stroke-linecap:butt;stroke-linejoin:miter;stroke-miterlimit:4;stroke-dasharray:none;stroke-dashoffset:0;stroke-opacity:1;-inkscape-stroke:none;stop-color:#000000"
         d="m 77.871687,135.37119 0.373227,-0.0392 v -0.42391 l -0.145143,-0.31563 -0.228084,0.25803 z"
         id="path33"
         sodipodi:nodetypes="cccccc" /><path
         style="fill:#626c6c;fill-opacity:1;fill-rule:evenodd;stroke:none;stroke-width:0.10209px;stroke-linecap:butt;stroke-linejoin:miter;stroke-opacity:1"
         d="m 77.871687,134.85051 -0.734933,0.007 -0.289666,-0.21367 1.252683,-0.0513 z"
         id="path34"
         sodipodi:nodetypes="ccccc" /><path
         style="fill:#747e87;fill-opacity:1;fill-rule:evenodd;stroke:none;stroke-width:0.10209px;stroke-linecap:butt;stroke-linejoin:miter;stroke-opacity:1"
         d="m 76.017886,134.54604 0.697247,0.28346 0.421621,0.028 -0.289666,-0.21367 z"
         id="path35"
         sodipodi:nodetypes="ccccc" /><path
         id="path36"
         style="fill:#373b30;fill-opacity:1;fill-rule:evenodd;stroke:none;stroke-width:0.105018px;stroke-linecap:butt;stroke-linejoin:miter;stroke-opacity:1"
         d="m 76.600922,134.90394 -0.176066,0.006 v 0.48791 l 0.179455,-7.7e-4 z m -0.279752,0.009 -0.486125,0.0157 v 0.47137 l 0.486125,-0.002 z m -0.573659,0.0188 -0.149945,0.005 v 0.46459 l 0.149945,-7.8e-4 z" /><path
         id="path38"
         style="font-variation-settings:normal;vector-effect:none;fill:#373b30;fill-opacity:1;fill-rule:evenodd;stroke:none;stroke-width:0.0737272px;stroke-linecap:butt;stroke-linejoin:miter;stroke-miterlimit:4;stroke-dasharray:none;stroke-dashoffset:0;stroke-opacity:1;-inkscape-stroke:none;stop-color:#000000"
         d="m 77.769575,134.92288 -0.530789,0.005 0.0024,0.22492 0.528397,0.012 z" /><path
         id="path39"
         style="font-variation-settings:normal;vector-effect:none;fill:#373b30;fill-opacity:1;fill-rule:evenodd;stroke:none;stroke-width:0.0753216px;stroke-linecap:butt;stroke-linejoin:miter;stroke-miterlimit:4;stroke-dasharray:none;stroke-dashoffset:0;stroke-opacity:1;-inkscape-stroke:none;stop-color:#000000"
         d="m 77.920717,134.90813 v 0.26479 l 0.09112,-0.003 v -0.25283 z m 0.185637,0.0188 v 0.24027 l 0.08973,-0.003 v -0.22851 z" /><path
         id="path40"
         style="color:#000000;font-variation-settings:normal;overflow:visible;opacity:1;vector-effect:none;fill:#414e20;fill-opacity:1;stroke:none;stroke-width:0.212464px;stroke-linecap:butt;stroke-linejoin:miter;stroke-miterlimit:4;stroke-dasharray:none;stroke-dashoffset:0;stroke-opacity:1;-inkscape-stroke:none"
         d="m 75.317472,133.66429 v 1.43402 a 0.78945392,1.0785449 0 0 0 0.587561,-1.04231 0.78945392,1.0785449 0 0 0 -0.05374,-0.39171 z" /><path
         style="fill:#c4b990;fill-opacity:1;fill-rule:evenodd;stroke:none;stroke-width:0.264583px;stroke-linecap:butt;stroke-linejoin:miter;stroke-opacity:1"
         d="m 77.871687,135.3712 -1.153781,0.26725 -1.313587,-0.0119 0.129729,-0.22519 1.190859,-0.005 0.423365,-0.0413 z"
         id="path41"
         sodipodi:nodetypes="ccccccc" /></g></g></svg>
