<?xml version="1.0" encoding="UTF-8" standalone="no"?>
<!-- Created with Inkscape (http://www.inkscape.org/) -->

<svg
   width="31.999998"
   height="32.000008"
   viewBox="0 0 8.466666 8.4666686"
   version="1.1"
   id="svg5"
   xml:space="preserve"
   sodipodi:docname="icon_error.svg"
   inkscape:version="1.3 (0e150ed6c4, 2023-07-21)"
   xmlns:inkscape="http://www.inkscape.org/namespaces/inkscape"
   xmlns:sodipodi="http://sodipodi.sourceforge.net/DTD/sodipodi-0.dtd"
   xmlns="http://www.w3.org/2000/svg"
   xmlns:svg="http://www.w3.org/2000/svg"><sodipodi:namedview
     id="namedview1"
     pagecolor="#ffffff"
     bordercolor="#666666"
     borderopacity="1.0"
     inkscape:showpageshadow="2"
     inkscape:pageopacity="0.0"
     inkscape:pagecheckerboard="true"
     inkscape:deskcolor="#d1d1d1"
     inkscape:zoom="4.7989318"
     inkscape:cx="19.275123"
     inkscape:cy="1.1460884"
     inkscape:current-layer="svg5" /><defs
     id="defs2"><inkscape:path-effect
       effect="fillet_chamfer"
       id="path-effect1"
       is_visible="true"
       lpeversion="1"
       nodesatellites_param="F,0,0,1,0,0.86000105,0,1 @ F,0,0,1,0,0.87279991,0,1 @ F,0,0,1,0,0.91608115,0,1"
       radius="0"
       unit="px"
       method="auto"
       mode="F"
       chamfer_steps="1"
       flexible="false"
       use_knot_distance="true"
       apply_no_radius="true"
       apply_with_radius="true"
       only_selected="false"
       hide_knots="false" /></defs><rect
     style="color:#000000;overflow:visible;fill:#d1d5d8;fill-opacity:1;stroke:none;stroke-width:0.0132292;stroke-linejoin:round;stroke-dasharray:none"
     id="rect12"
     width="0.71293122"
     height="6.4887185"
     x="31.753181"
     y="1.1776662" /><rect
     style="color:#000000;overflow:visible;fill:#d1d5d8;fill-opacity:1;stroke:none;stroke-width:0.0132292;stroke-linejoin:round;stroke-dasharray:none"
     id="rect13"
     width="0.71293122"
     height="6.4887185"
     x="38.42939"
     y="1.1776662" /><rect
     style="color:#000000;overflow:visible;fill:#f3b530;fill-opacity:1;stroke:none;stroke-width:0.0132292;stroke-linejoin:round;stroke-dasharray:none"
     id="rect2"
     width="8.4666672"
     height="1.0996568"
     x="31.220833"
     y="2.0645981" /><rect
     style="color:#000000;overflow:visible;fill:#264c57;fill-opacity:1;stroke:none;stroke-width:0.0153884;stroke-linejoin:round;stroke-dasharray:none"
     id="rect3"
     width="1.0407511"
     height="1.4879102"
     x="34.104984"
     y="2.7935407"
     transform="matrix(1,0,-0.67363809,0.73906138,0,0)" /><rect
     style="color:#000000;overflow:visible;fill:#264c57;fill-opacity:1;stroke:none;stroke-width:0.0153884;stroke-linejoin:round;stroke-dasharray:none"
     id="rect4"
     width="1.0407511"
     height="1.4879102"
     x="40.528587"
     y="2.7935412"
     transform="matrix(1,0,-0.67363809,0.73906138,0,0)" /><rect
     style="color:#000000;overflow:visible;fill:#264c57;fill-opacity:1;stroke:none;stroke-width:0.0153884;stroke-linejoin:round;stroke-dasharray:none"
     id="rect5"
     width="1.0407511"
     height="1.4879102"
     x="36.246185"
     y="2.7935412"
     transform="matrix(1,0,-0.67363809,0.73906138,0,0)" /><rect
     style="color:#000000;overflow:visible;fill:#264c57;fill-opacity:1;stroke:none;stroke-width:0.0153884;stroke-linejoin:round;stroke-dasharray:none"
     id="rect6"
     width="1.0407511"
     height="1.4879102"
     x="38.387386"
     y="2.7935412"
     transform="matrix(1,0,-0.67363809,0.73906138,0,0)" /><rect
     style="color:#000000;overflow:visible;fill:#f3b530;fill-opacity:1;stroke:none;stroke-width:0.0132292;stroke-linejoin:round;stroke-dasharray:none"
     id="rect7"
     width="8.4666672"
     height="1.0996568"
     x="31.220833"
     y="3.9723406" /><rect
     style="color:#000000;overflow:visible;fill:#264c57;fill-opacity:1;stroke:none;stroke-width:0.0153884;stroke-linejoin:round;stroke-dasharray:none"
     id="rect8"
     width="1.0407511"
     height="1.4879102"
     x="35.843849"
     y="5.3748455"
     transform="matrix(1,0,-0.67363809,0.73906138,0,0)" /><rect
     style="color:#000000;overflow:visible;fill:#264c57;fill-opacity:1;stroke:none;stroke-width:0.0153884;stroke-linejoin:round;stroke-dasharray:none"
     id="rect9"
     width="1.0407511"
     height="1.4879102"
     x="42.267452"
     y="5.374846"
     transform="matrix(1,0,-0.67363809,0.73906138,0,0)" /><rect
     style="color:#000000;overflow:visible;fill:#264c57;fill-opacity:1;stroke:none;stroke-width:0.0153884;stroke-linejoin:round;stroke-dasharray:none"
     id="rect10"
     width="1.0407511"
     height="1.4879102"
     x="37.98505"
     y="5.374846"
     transform="matrix(1,0,-0.67363809,0.73906138,0,0)" /><rect
     style="color:#000000;overflow:visible;fill:#264c57;fill-opacity:1;stroke:none;stroke-width:0.0153884;stroke-linejoin:round;stroke-dasharray:none"
     id="rect11"
     width="1.0407511"
     height="1.4879102"
     x="40.126251"
     y="5.374846"
     transform="matrix(1,0,-0.67363809,0.73906138,0,0)" /><rect
     style="color:#000000;overflow:visible;fill:#aeb3b9;fill-opacity:1;stroke:none;stroke-width:0.0132292;stroke-linejoin:round;stroke-dasharray:none"
     id="rect18"
     width="0.71293122"
     height="0.45943746"
     x="31.753181"
     y="3.1642549" /><rect
     style="color:#000000;overflow:visible;fill:#aeb3b9;fill-opacity:1;stroke:none;stroke-width:0.0132292;stroke-linejoin:round;stroke-dasharray:none"
     id="rect19"
     width="0.71293122"
     height="0.45943746"
     x="31.753181"
     y="5.0719972" /><rect
     style="color:#000000;overflow:visible;fill:#aeb3b9;fill-opacity:1;stroke:none;stroke-width:0.0132292;stroke-linejoin:round;stroke-dasharray:none"
     id="rect20"
     width="0.71293122"
     height="0.45943746"
     x="38.42939"
     y="3.1642549" /><rect
     style="color:#000000;overflow:visible;fill:#aeb3b9;fill-opacity:1;stroke:none;stroke-width:0.0132292;stroke-linejoin:round;stroke-dasharray:none"
     id="rect21"
     width="0.71293122"
     height="0.45943746"
     x="38.42939"
     y="5.0719972" /><g
     id="g21"
     transform="matrix(1.5700674,0,0,1.5700674,-0.86193268,6.7735413)"
     style="stroke-width:0.636915"><path
       sodipodi:type="star"
       style="color:#000000;overflow:visible;fill:#ff1919;fill-opacity:1;stroke:none;stroke-width:0.10111;stroke-linejoin:round;stroke-dasharray:none"
       id="path21"
       inkscape:flatsided="true"
       sodipodi:sides="8"
       sodipodi:cx="9.6489058"
       sodipodi:cy="-1.6178975"
       sodipodi:r1="2.5536234"
       sodipodi:r2="2.3592403"
       sodipodi:arg1="1.5707963"
       sodipodi:arg2="1.9634954"
       inkscape:rounded="0"
       inkscape:randomized="0"
       d="M 9.6489058,0.93572593 7.8432214,0.18778699 7.0952823,-1.6178974 l 0.747939,-1.8056845 1.8056844,-0.747939 1.8056843,0.7479389 0.747939,1.8056844 -0.747939,1.80568449 z"
       transform="rotate(22.5,9.6489058,-1.6178975)" /><path
       d="m 7.5098725,-1.3698248 0.2301226,-0.027188 q 0.038839,0.2728458 0.2543971,0.2728458 0.1068079,0 0.1679798,-0.055346 0.061172,-0.056317 0.061172,-0.1388504 0,-0.048549 -0.021362,-0.082533 -0.021362,-0.033984 -0.065056,-0.055346 -0.043694,-0.022333 -0.211674,-0.073795 -0.1505021,-0.045636 -0.2204128,-0.09904 -0.069911,-0.053404 -0.1116628,-0.1398213 -0.040781,-0.087388 -0.040781,-0.1873995 0,-0.1165177 0.052433,-0.209732 0.053404,-0.093214 0.1466182,-0.1407923 0.093214,-0.047578 0.2301226,-0.047578 0.2058481,0 0.3213949,0.1116629 0.1155468,0.1116629 0.1223436,0.3194529 l -0.2359484,0.012623 q -0.015536,-0.1145758 -0.066998,-0.160212 -0.051462,-0.045636 -0.1466182,-0.045636 -0.095156,0 -0.1466182,0.03981 -0.051462,0.03981 -0.051462,0.09904 0,0.058259 0.046607,0.098069 0.046607,0.03981 0.2145869,0.087388 0.1776896,0.051462 0.2563391,0.1087499 0.079621,0.056317 0.1213727,0.1466182 0.041752,0.08933 0.041752,0.2174999 0,0.1854574 -0.1145758,0.311685 -0.1136048,0.12622758 -0.3563502,0.12622758 -0.4291738,0 -0.4777228,-0.48840368 z m 1.409865,0.46315816 V -2.089322 H 8.5730972 V -2.3301254 H 9.5003844 V -2.089322 H 9.1547151 v 1.18265536 z M 9.5780627,-1.6096572 q 0,-0.2543971 0.074766,-0.418493 0.075736,-0.1650668 0.1971092,-0.2456583 0.1213727,-0.080592 0.2942071,-0.080592 0.250513,0 0.407812,0.1912834 0.15827,0.1912833 0.15827,0.5447206 0,0.3573211 -0.167009,0.5583143 -0.146618,0.1776896 -0.398102,0.1776896 -0.2534259,0 -0.4000441,-0.1757476 -0.1670088,-0.2009932 -0.1670092,-0.551517 z m 0.2427454,-0.00971 q 0,0.2456583 0.093214,0.3689729 0.093215,0.1223437 0.2310939,0.1223437 0.13885,0 0.230122,-0.1213727 0.09127,-0.1223436 0.09127,-0.3747988 0,-0.2476003 -0.08933,-0.36606 -0.08836,-0.1184598 -0.232064,-0.1184598 -0.143705,0 -0.2340069,0.1194308 -0.090301,0.1194307 -0.090301,0.3699439 z m 1.0729349,0.71270036 V -2.3301254 h 0.378683 q 0.211674,0 0.276729,0.020391 0.103895,0.033013 0.170893,0.1407923 0.06797,0.1077789 0.06797,0.2777007 0,0.154386 -0.05826,0.259252 -0.05826,0.103895 -0.145647,0.1466182 -0.08739,0.041752 -0.301005,0.041752 H 11.12872 v 0.53695276 z M 11.12872,-2.089322 v 0.4039283 h 0.130112 q 0.131082,0 0.177689,-0.018449 0.04758,-0.018449 0.07768,-0.066027 0.0301,-0.048549 0.0301,-0.1184598 0,-0.070882 -0.03107,-0.1194307 -0.03107,-0.048549 -0.07671,-0.065056 -0.04564,-0.016507 -0.193225,-0.016507 z"
       id="text21"
       style="font-weight:bold;font-stretch:condensed;font-size:1.98857px;line-height:100%;font-family:Arial;-inkscape-font-specification:'Arial Bold Condensed';letter-spacing:0px;word-spacing:0px;fill:#ffffff;stroke-width:0.168517px"
       aria-label="STOP" /></g><g
     id="g25"
     transform="matrix(1.275693,0,0,1.275693,37.035314,-1.2659529)"
     style="stroke-width:0.783888"><rect
       style="color:#000000;overflow:visible;fill:#fdcc0d;fill-opacity:1;stroke:#000000;stroke-width:0.207406;stroke-linecap:round;stroke-linejoin:round;stroke-dasharray:none"
       id="rect22"
       width="4.2333331"
       height="4.2333331"
       x="-5.8111315"
       y="7.674221"
       transform="rotate(45)" /><path
       id="path22"
       style="color:#000000;fill:#000000;stroke-width:0.783888;stroke-linejoin:round;-inkscape-stroke:none"
       d="M -9.5162675,2.6919436 C -10.142461,2.6918781 -10.65919,3.2053511 -10.65912,3.831548 v 1.9756565 h 0.6672097 V 3.831548 c -2.8e-5,-0.2648684 0.2084681,-0.4713394 0.4730367,-0.4723918 0.2654009,1.864e-4 0.4750256,0.2069912 0.4749979,0.4723918 V 4.6636902 H -9.4419879 L -8.7109213,5.9297 -7.9798541,4.6636902 H -8.3760113 V 3.831548 c 6.56e-5,-0.6258479 -0.5144085,-1.1391651 -1.1402562,-1.1396044 z"
       sodipodi:nodetypes="cccccccccccccc" /></g><g
     id="g2"
     transform="translate(-66.161442,-127.25539)"><rect
       style="color:#000000;overflow:visible;fill:#ababab;stroke-width:0.079375;stroke-linejoin:round"
       id="rect2-9"
       width="7.9375"
       height="7.9375"
       x="66.690605"
       y="127.78455"
       rx="1.0583333"
       ry="1.0583333" /><rect
       style="color:#000000;overflow:visible;fill:#ffffff;stroke-width:0.079375;stroke-linejoin:round"
       id="rect1-6"
       width="7.9375"
       height="7.9375"
       x="66.426025"
       y="127.51997"
       rx="1.0583333"
       ry="1.0583333" /><rect
       style="color:#000000;overflow:visible;fill:#7ab4e1;fill-opacity:1;stroke-width:0.079375;stroke-linejoin:round"
       id="rect3-6"
       width="6.3499999"
       height="5.2916665"
       x="67.219772"
       y="128.31372" /><path
       style="fill:#4f5d7a;fill-opacity:1;fill-rule:evenodd;stroke:none;stroke-width:0.264583px;stroke-linecap:butt;stroke-linejoin:miter;stroke-opacity:1"
       d="m 67.219772,133.60539 2.23758,-3.38847 2.125622,2.24504 0.633322,-0.41772 c 0.263673,-0.17391 0.559015,-0.0926 0.768503,0.0644 l 0.584972,0.43839 v 1.05833 z"
       id="path3-3"
       sodipodi:nodetypes="cccssccc" /><path
       id="path4-0"
       style="fill:#ffffff;fill-rule:evenodd;stroke:none;stroke-width:0.264583px;stroke-linecap:butt;stroke-linejoin:miter;stroke-opacity:1"
       d="m 69.457365,130.21696 -0.782898,1.18545 c 0.144603,0.24821 0.257348,0.45062 0.257348,0.45062 l 0.370521,-0.58549 0.835607,0.68109 0.256832,-0.45992 0.281637,0.0155 z" /><circle
       style="color:#000000;overflow:visible;fill:#f4ce56;fill-opacity:1;stroke:none;stroke-width:0.079375;stroke-linejoin:round"
       id="path5"
       cx="72.258049"
       cy="129.83926"
       r="0.79374999" /></g><circle
     style="color:#000000;overflow:visible;fill:#ff1919;fill-opacity:1;stroke:none;stroke-width:0.617071"
     id="path4"
     cx="2.6458333"
     cy="2.6458333"
     r="2.6458333" /><text
     xml:space="preserve"
     style="font-style:normal;font-variant:normal;font-weight:normal;font-stretch:normal;font-size:5.83668px;line-height:100%;font-family:'Britannic Bold';-inkscape-font-specification:'Britannic Bold, ';letter-spacing:0px;word-spacing:0px;writing-mode:lr-tb;fill:#ffffff;stroke:none;stroke-width:0.364793px;stroke-linecap:butt;stroke-linejoin:miter;stroke-opacity:1"
     x="1.588506"
     y="4.5923419"
     id="text1"><tspan
       sodipodi:role="line"
       id="tspan1"
       style="font-style:normal;font-variant:normal;font-weight:normal;font-stretch:normal;font-family:'Britannic Bold';-inkscape-font-specification:'Britannic Bold, ';fill:#ffffff;stroke:none;stroke-width:0.364793px"
       x="1.588506"
       y="4.5923419">!</tspan></text></svg>
