<?xml version="1.0" encoding="UTF-8" standalone="no"?>
<!-- Created with Inkscape (http://www.inkscape.org/) -->

<svg
   width="31.999998"
   height="31.999998"
   viewBox="0 0 8.466666 8.4666661"
   version="1.1"
   id="svg5"
   xml:space="preserve"
   sodipodi:docname="icon_assumption.svg"
   inkscape:version="1.3 (0e150ed6c4, 2023-07-21)"
   xmlns:inkscape="http://www.inkscape.org/namespaces/inkscape"
   xmlns:sodipodi="http://sodipodi.sourceforge.net/DTD/sodipodi-0.dtd"
   xmlns="http://www.w3.org/2000/svg"
   xmlns:svg="http://www.w3.org/2000/svg"><sodipodi:namedview
     id="namedview1"
     pagecolor="#ffffff"
     bordercolor="#666666"
     borderopacity="1.0"
     inkscape:showpageshadow="2"
     inkscape:pageopacity="0.0"
     inkscape:pagecheckerboard="true"
     inkscape:deskcolor="#d1d1d1"
     inkscape:zoom="11.078125"
     inkscape:cx="7.3117066"
     inkscape:cy="14.939351"
     inkscape:current-layer="svg5"
     showgrid="false" /><defs
     id="defs2"><inkscape:path-effect
       effect="fillet_chamfer"
       id="path-effect25"
       is_visible="true"
       lpeversion="1"
       nodesatellites_param="F,0,0,1,0,0.45262791,0,1 @ F,0,0,1,0,0.54730955,0,1 @ F,0,0,1,0,0.48088837,0,1 @ F,0,0,1,0,0.49484803,0,1"
       radius="0"
       unit="px"
       method="auto"
       mode="F"
       chamfer_steps="1"
       flexible="false"
       use_knot_distance="true"
       apply_no_radius="true"
       apply_with_radius="true"
       only_selected="false"
       hide_knots="false" /><inkscape:path-effect
       effect="fillet_chamfer"
       id="path-effect11"
       is_visible="true"
       lpeversion="1"
       nodesatellites_param="F,0,0,1,0,0.48088833,0,1 @ F,0,0,1,0,0.41816408,0,1 @ F,0,0,1,0,0.48652449,0,1 @ F,0,0,1,0,0.38129207,0,1"
       radius="0"
       unit="px"
       method="auto"
       mode="F"
       chamfer_steps="1"
       flexible="false"
       use_knot_distance="true"
       apply_no_radius="true"
       apply_with_radius="true"
       only_selected="false"
       hide_knots="false" /><inkscape:path-effect
       effect="fillet_chamfer"
       id="path-effect10"
       is_visible="true"
       lpeversion="1"
       nodesatellites_param="F,0,0,1,0,0.45262791,0,1 @ F,0,0,1,0,0.54730955,0,1 @ F,0,0,1,0,0.48088837,0,1 @ F,0,0,1,0,0.49484803,0,1"
       radius="0"
       unit="px"
       method="auto"
       mode="F"
       chamfer_steps="1"
       flexible="false"
       use_knot_distance="true"
       apply_no_radius="true"
       apply_with_radius="true"
       only_selected="false"
       hide_knots="false" /><inkscape:path-effect
       effect="fillet_chamfer"
       id="path-effect8"
       is_visible="true"
       lpeversion="1"
       nodesatellites_param="F,0,0,1,0,0.45262791,0,1 @ F,0,0,1,0,0.41816417,0,1 @ F,0,0,1,0,0.5539566,0,1 @ F,0,0,1,0,0.31608855,0,1"
       radius="0"
       unit="px"
       method="auto"
       mode="F"
       chamfer_steps="1"
       flexible="false"
       use_knot_distance="true"
       apply_no_radius="true"
       apply_with_radius="true"
       only_selected="false"
       hide_knots="false" /><inkscape:path-effect
       effect="fillet_chamfer"
       id="path-effect7"
       is_visible="true"
       lpeversion="1"
       nodesatellites_param="F,0,0,1,0,0.45262791,0,1 @ F,0,0,1,0,0.54730955,0,1 @ F,0,0,1,0,0.48088837,0,1 @ F,0,0,1,0,0.49484803,0,1"
       radius="0"
       unit="px"
       method="auto"
       mode="F"
       chamfer_steps="1"
       flexible="false"
       use_knot_distance="true"
       apply_no_radius="true"
       apply_with_radius="true"
       only_selected="false"
       hide_knots="false" /><inkscape:path-effect
       effect="fillet_chamfer"
       id="path-effect6"
       is_visible="true"
       lpeversion="1"
       nodesatellites_param="F,0,0,1,0,0.53690604,0,1 @ F,0,0,1,0,0.4948482,0,1 @ F,0,0,1,0,0.48088837,0,1 @ F,0,0,1,0,0.50848312,0,1 @ F,0,0,1,0,0.5539566,0,1 @ F,0,0,1,0,0.54926899,0,1"
       radius="0"
       unit="px"
       method="auto"
       mode="F"
       chamfer_steps="1"
       flexible="false"
       use_knot_distance="true"
       apply_no_radius="true"
       apply_with_radius="true"
       only_selected="false"
       hide_knots="false" /><inkscape:path-effect
       effect="fillet_chamfer"
       id="path-effect4"
       is_visible="true"
       lpeversion="1"
       nodesatellites_param="F,0,0,1,0,0.43422414,0,1 @ F,0,0,1,0,0.31752298,0,1 @ F,0,0,1,0,0.33561272,0,1 @ F,0,0,1,0,0.39344263,0,1 @ F,0,0,1,0,0.3639653,0,1 @ F,0,0,1,0,0.36852017,0,1"
       radius="0"
       unit="px"
       method="auto"
       mode="F"
       chamfer_steps="1"
       flexible="false"
       use_knot_distance="true"
       apply_no_radius="true"
       apply_with_radius="true"
       only_selected="false"
       hide_knots="false" /><inkscape:path-effect
       effect="fillet_chamfer"
       id="path-effect2"
       is_visible="true"
       lpeversion="1"
       nodesatellites_param="F,0,0,1,0,0.43422414,0,1 @ F,0,0,1,0,0.31752298,0,1 @ F,0,0,1,0,0.33561272,0,1 @ F,0,0,1,0,0.39344263,0,1 @ F,0,0,1,0,0.3639653,0,1 @ F,0,0,1,0,0.36852017,0,1"
       radius="0"
       unit="px"
       method="auto"
       mode="F"
       chamfer_steps="1"
       flexible="false"
       use_knot_distance="true"
       apply_no_radius="true"
       apply_with_radius="true"
       only_selected="false"
       hide_knots="false" /></defs><path
     style="fill:#000000;fill-rule:evenodd;stroke:none;stroke-width:0.264583px;stroke-linecap:butt;stroke-linejoin:miter;stroke-opacity:1;fill-opacity:0"
     d="M -5.8343699,2.1446586 -7.706667,3.22563 -9.5789644,2.1446587 -7.7066671,1.0636873 Z"
     id="path4"
     sodipodi:nodetypes="ccccc" /><g
     id="g34"
     transform="matrix(2.0624875,0,0,2.0624875,9.2141402,-2.4045594)"
     style="stroke-width:0.48485"><path
       id="path2"
       style="overflow:visible;fill:#b6bdc3;fill-opacity:1;stroke-width:0.256566;stroke-linejoin:round"
       d="m -2.2448242,1.9223633 -1.4092163,1.0510986 -0.027389,1.6825846 0.8903849,0.5141805 a 0.75209829,0.75209829 0 0 0 0.7518921,0 l 0.5017782,-0.2899048 c 0.00318,-0.099508 0.00622,-0.1979738 0.00982,-0.3002401 0.011083,-0.3150686 0.023958,-0.6305651 0.03359,-0.8671305 0.00963,-0.2365653 0.01602,-0.3942912 0.01602,-0.3942912 z" /><path
       id="path13"
       style="overflow:visible;fill:#b6bdc3;fill-opacity:1;stroke-width:0.256566;stroke-linejoin:round"
       d="M -1.5528768,1.5616618 -1.8164266,1.4092163 c -0.026819,0.03299 -0.055611,0.068679 -0.081132,0.099735 -0.065493,0.079697 -0.1257517,0.1521292 -0.1772501,0.2134237 -0.102997,0.1225887 -0.1700155,0.1999878 -0.1700155,0.1999878 z" /><path
       id="path12"
       style="overflow:visible;fill:#a3afb8;fill-opacity:1;stroke-width:0.256566;stroke-linejoin:round"
       d="m -1.5528768,1.5616618 -0.6919474,0.3607015 0.7668783,1.3962971 c 0,0 -0.00639,0.1577259 -0.01602,0.3942912 -0.00963,0.2365654 -0.022507,0.5520619 -0.03359,0.8671305 -0.0036,0.1022663 -0.00664,0.200732 -0.00982,0.3002401 l 0.67541092,-0.3896403 a 0.63829566,0.63829566 0 0 0 0.31936035,-0.552421 V 2.508374 A 0.6304064,0.6304064 0 0 0 -0.85782876,1.9626709 Z" /><path
       id="path11"
       style="overflow:visible;fill:#ffffff;fill-opacity:1;stroke-width:0.256566;stroke-linejoin:round"
       d="M -3.639633,4.315708 -3.65404,2.9734619 -2.2448237,1.9223633 c 0,0 0.067018,-0.077399 0.1700155,-0.1999878 0.051499,-0.061295 0.1117574,-0.1337269 0.1772501,-0.2134237 0.025521,-0.031056 0.054313,-0.066746 0.081132,-0.099735 L -2.074292,1.2603882 c -0.2108833,-0.1217891 -0.4707288,-0.1217891 -0.6816121,0 l -1.2407511,0.7162353 c -0.1798986,0.1039729 -0.2906208,0.296062 -0.2904216,0.5038452 l 0.2925717,1.3233387 c -7.48e-5,0.1965322 -0.056483,0.282634 0.1137056,0.3809231 z"
       sodipodi:nodetypes="cccsscccccccc" /><path
       style="fill:#ced4da;fill-opacity:1;fill-rule:evenodd;stroke:none;stroke-width:0.128283px;stroke-linecap:butt;stroke-linejoin:miter;stroke-opacity:1"
       d="M -7.706667,4.9349449 V 3.7729396 A 0.9479679,0.9479679 59.999999 0 0 -8.180651,2.9519752 L -9.1625028,2.3851029 a 0.27764101,0.27764101 150 0 0 -0.4164616,0.2404442 l 2e-7,1.1862064 a 0.85710202,0.85710202 59.999997 0 0 0.428551,0.742272 l 1.0517589,0.6072333 A 0.26132484,0.26132484 150 0 0 -7.706667,4.9349449 Z"
       id="path5"
       sodipodi:nodetypes="ccccc"
       transform="translate(5.2916666)"
       inkscape:original-d="M -7.706667,5.3875728 V 3.22563 l -1.8722974,-1.0809713 2e-7,2.1619428 z"
       inkscape:path-effect="#path-effect7" /><path
       style="fill:#a3afb8;fill-opacity:1;fill-rule:evenodd;stroke:none;stroke-width:0.128283px;stroke-linecap:butt;stroke-linejoin:miter;stroke-opacity:1"
       d="m -7.706667,4.9349449 0,-1.2911507 a 0.72428164,0.72428164 120 0 1 0.3621408,-0.6272463 l 1.0304158,-0.594911 a 0.319827,0.319827 29.999995 0 1 0.4797406,0.2769783 l 1e-7,1.2918977 A 0.54748138,0.54748138 120 0 1 -6.1081104,4.4646457 L -7.3146797,5.1612588 A 0.26132484,0.26132484 29.999999 0 1 -7.706667,4.9349449 Z"
       id="path6"
       sodipodi:nodetypes="ccccc"
       transform="translate(5.2916664)"
       inkscape:original-d="M -7.706667,5.3875728 V 3.22563 l 1.8722971,-1.0809714 2e-7,2.1619428 z"
       inkscape:path-effect="#path-effect8" /><path
       style="fill:#ffffff;fill-opacity:1;fill-rule:evenodd;stroke:none;stroke-width:0.128283px;stroke-linecap:butt;stroke-linejoin:miter;stroke-opacity:1"
       d="m -9.1625028,2.3851028 1.0936952,0.6314452 a 0.72428138,0.72428138 180 0 0 0.7242814,-10e-8 l 1.088814,-0.6286271 a 0.28089503,0.28089503 89.999995 0 0 0,-0.4865245 l -1.1207463,-0.647063 a 0.66041732,0.66041732 180 0 0 -0.6604172,0 l -1.1256271,0.6498811 a 0.27764101,0.27764101 90 0 0 0,0.4808884 z"
       id="path8"
       sodipodi:nodetypes="ccccc"
       transform="translate(5.2916664)"
       inkscape:original-d="M -9.5789643,2.1446586 -7.7066669,3.22563 -5.8343696,2.1446585 -7.7066671,1.0636873 Z"
       inkscape:path-effect="#path-effect11" /><ellipse
       style="color:#000000;overflow:visible;fill:#000000;fill-opacity:1;stroke:none;stroke-width:0.256566;stroke-linejoin:round"
       id="path14"
       cx="-2.5608785"
       cy="1.5607427"
       rx="0.27465913"
       ry="0.16121298" /><ellipse
       style="color:#000000;overflow:visible;fill:#000000;fill-opacity:1;stroke:none;stroke-width:0.256566;stroke-linejoin:round"
       id="ellipse15"
       cx="-1.9873482"
       cy="1.8918742"
       rx="0.27465913"
       ry="0.16121298" /><ellipse
       style="color:#000000;overflow:visible;fill:#000000;fill-opacity:1;stroke:none;stroke-width:0.256566;stroke-linejoin:round"
       id="ellipse16"
       cx="-1.4138179"
       cy="2.2230058"
       rx="0.27465913"
       ry="0.16121298" /><ellipse
       style="color:#000000;overflow:visible;fill:#000000;fill-opacity:1;stroke:none;stroke-width:0.256566;stroke-linejoin:round"
       id="ellipse17"
       cx="-3.4194372"
       cy="2.0564315"
       rx="0.27465913"
       ry="0.16121298" /><ellipse
       style="color:#000000;overflow:visible;fill:#000000;fill-opacity:1;stroke:none;stroke-width:0.256566;stroke-linejoin:round"
       id="ellipse18"
       cx="-2.8459067"
       cy="2.387563"
       rx="0.27465913"
       ry="0.16121298" /><ellipse
       style="color:#000000;overflow:visible;fill:#000000;fill-opacity:1;stroke:none;stroke-width:0.256566;stroke-linejoin:round"
       id="ellipse19"
       cx="-2.2723763"
       cy="2.7186947"
       rx="0.27465913"
       ry="0.16121298" /><ellipse
       style="color:#000000;overflow:visible;fill:#000000;fill-opacity:1;stroke:none;stroke-width:0.256566;stroke-linejoin:round"
       id="ellipse20"
       cx="0.61380178"
       cy="4.7964578"
       rx="0.27465913"
       ry="0.16121298"
       transform="rotate(60)" /><ellipse
       style="color:#000000;overflow:visible;fill:#000000;fill-opacity:1;stroke:none;stroke-width:0.256566;stroke-linejoin:round"
       id="ellipse25"
       cx="1.6054161"
       cy="4.2239552"
       rx="0.27465913"
       ry="0.16121298"
       transform="rotate(60)" /><ellipse
       style="color:#000000;overflow:visible;fill:#000000;fill-opacity:1;stroke:none;stroke-width:0.256566;stroke-linejoin:round"
       id="ellipse26"
       cx="1.5768832"
       cy="5.3524938"
       rx="0.27465913"
       ry="0.16121298"
       transform="rotate(60)" /><ellipse
       style="color:#000000;overflow:visible;fill:#000000;fill-opacity:1;stroke:none;stroke-width:0.256566;stroke-linejoin:round"
       id="ellipse27"
       cx="2.5684972"
       cy="4.7799907"
       rx="0.27465913"
       ry="0.16121298"
       transform="rotate(60)" /><ellipse
       style="color:#000000;overflow:visible;fill:#000000;fill-opacity:1;stroke:none;stroke-width:0.256566;stroke-linejoin:round"
       id="ellipse28"
       cx="1.5911498"
       cy="4.7882242"
       rx="0.27465913"
       ry="0.16121298"
       transform="rotate(60)" /><ellipse
       style="color:#000000;overflow:visible;fill:#000000;fill-opacity:1;stroke:none;stroke-width:0.256566;stroke-linejoin:round"
       id="ellipse31"
       cx="4.0204167"
       cy="0.041051313"
       rx="0.27465913"
       ry="0.16121298"
       transform="matrix(-0.5,0.8660254,0.8660254,0.5,0,0)" /><ellipse
       style="color:#000000;overflow:visible;fill:#000000;fill-opacity:1;stroke:none;stroke-width:0.256566;stroke-linejoin:round"
       id="ellipse32"
       cx="3.9918838"
       cy="1.1695899"
       rx="0.27465913"
       ry="0.16121298"
       transform="matrix(-0.5,0.8660254,0.8660254,0.5,0,0)" /><ellipse
       style="color:#000000;overflow:visible;fill:#000000;fill-opacity:1;stroke:none;stroke-width:0.256566;stroke-linejoin:round"
       id="ellipse34"
       cx="4.0061502"
       cy="0.60532039"
       rx="0.27465913"
       ry="0.16121298"
       transform="matrix(-0.5,0.8660254,0.8660254,0.5,0,0)" /></g></svg>
