<?xml version="1.0" encoding="UTF-8" standalone="no"?>
<!-- Created with Inkscape (http://www.inkscape.org/) -->

<svg
   width="32.000031"
   height="31.999998"
   viewBox="0 0 8.4666745 8.4666661"
   version="1.1"
   id="svg5"
   xml:space="preserve"
   sodipodi:docname="icon_finished.svg"
   inkscape:version="1.3 (0e150ed6c4, 2023-07-21)"
   xmlns:inkscape="http://www.inkscape.org/namespaces/inkscape"
   xmlns:sodipodi="http://sodipodi.sourceforge.net/DTD/sodipodi-0.dtd"
   xmlns="http://www.w3.org/2000/svg"
   xmlns:svg="http://www.w3.org/2000/svg"><sodipodi:namedview
     id="namedview1"
     pagecolor="#ffffff"
     bordercolor="#666666"
     borderopacity="1.0"
     inkscape:showpageshadow="2"
     inkscape:pageopacity="0.0"
     inkscape:pagecheckerboard="true"
     inkscape:deskcolor="#d1d1d1"
     inkscape:zoom="19.562481"
     inkscape:cx="16.000015"
     inkscape:cy="15.974456"
     inkscape:current-layer="svg5" /><defs
     id="defs2" /><g
     id="layer1"
     transform="translate(-119.07806,-127.25538)"><circle
       style="color:#000000;font-variation-settings:normal;overflow:visible;opacity:1;vector-effect:none;fill:#ffffff;fill-opacity:1;stroke:none;stroke-width:0.194151;stroke-linecap:butt;stroke-linejoin:round;stroke-miterlimit:4;stroke-dasharray:none;stroke-dashoffset:0;stroke-opacity:1;-inkscape-stroke:none;stop-color:#000000;stop-opacity:1"
       id="circle27"
       cx="123.3114"
       cy="131.48871"
       r="4.2333331" /><path
       style="fill:#000000;stroke-width:0.999993"
       d="m 119.07807,135.23578 3.0137,-7.57428 c 0.0462,-0.11611 0.13549,-0.0641 0.36138,0.1999 0.1448,0.16918 0.45478,0.40162 0.68882,0.51655 0.41297,0.20278 0.4566,0.20842 1.47623,0.19013 0.87963,-0.0159 1.12961,0.006 1.53547,0.13089 0.53412,0.16497 1.39107,0.74258 1.39107,0.93763 0,0.0665 -0.31782,0.96995 -0.70626,2.00787 -0.38842,1.03795 -0.70624,1.92144 -0.70624,1.96329 0,0.20129 -0.23776,0.13114 -0.53302,-0.15723 -0.17702,-0.17289 -0.53297,-0.41373 -0.79097,-0.53514 -0.42012,-0.19773 -0.53264,-0.21851 -1.07792,-0.19908 -1.46965,0.0523 -1.62687,0.039 -2.09566,-0.17755 -0.24533,-0.11334 -0.53826,-0.29426 -0.65095,-0.40209 -0.12455,-0.11913 -0.2302,-0.16851 -0.26933,-0.1259 l -1.31365,3.3636 z m 7.17831,-2.90204 c 0.0351,-0.17575 -0.007,-0.23788 -0.32058,-0.46856 -0.19861,-0.14627 -0.40651,-0.25792 -0.46201,-0.24812 -0.0828,0.0147 -0.45663,0.8445 -0.45663,1.01355 0,0.0265 0.11536,0.11045 0.25622,0.18636 0.14092,0.0758 0.33327,0.22008 0.42745,0.32043 l 0.17123,0.18245 0.1719,-0.39176 c 0.0946,-0.21544 0.19013,-0.48291 0.21242,-0.59435 z m -3.00584,0.0632 c 0.0662,-0.0511 0.20403,-0.30201 0.30635,-0.55755 l 0.18606,-0.46463 h -0.46871 c -0.25779,0 -0.56765,-0.0197 -0.68859,-0.044 -0.21293,-0.0427 -0.22526,-0.0291 -0.39111,0.42747 -0.0942,0.25928 -0.18597,0.51057 -0.20397,0.55844 -0.0627,0.16636 1.05623,0.23761 1.25997,0.0802 z m 2.32593,-1.67311 c 0.11436,-0.29669 0.18849,-0.55887 0.16473,-0.58263 -0.0775,-0.0775 -0.60464,-0.17531 -0.9542,-0.17712 l -0.34167,-0.003 -0.22541,0.57613 -0.22542,0.57614 0.46366,0.0542 c 0.25501,0.0298 0.54365,0.0849 0.64142,0.12228 0.0978,0.0374 0.19829,0.0464 0.22337,0.02 0.0251,-0.0263 0.13916,-0.29073 0.25352,-0.58741 z m -3.06562,-0.18539 c 0.11234,-0.29644 0.20374,-0.57357 0.20303,-0.61587 -9.2e-4,-0.0423 -0.10995,-0.13901 -0.24288,-0.21496 -0.13289,-0.076 -0.33326,-0.22287 -0.44527,-0.32655 -0.11196,-0.10365 -0.22657,-0.16558 -0.25456,-0.13758 -0.0279,0.0279 -0.14452,0.29153 -0.25897,0.58566 -0.19418,0.4991 -0.19989,0.54378 -0.0855,0.67005 0.12832,0.14183 0.75895,0.57821 0.83553,0.57821 0.0244,0 0.13636,-0.24252 0.24873,-0.53896 z m 4.56385,-0.36898 c 0.089,-0.25405 0.14583,-0.48778 0.12628,-0.51942 -0.0836,-0.13533 -0.71337,-0.51512 -0.79939,-0.48211 -0.11083,0.0425 -0.44136,0.89683 -0.358,0.92537 0.0313,0.0113 0.22297,0.13433 0.42592,0.27469 0.20294,0.14035 0.38571,0.25704 0.40618,0.25928 0.0204,0.003 0.11007,-0.20376 0.19901,-0.45781 z m -2.7487,-0.37444 c 0.0387,-0.051 0.13964,-0.26444 0.22421,-0.4741 l 0.15379,-0.3812 -0.56826,-0.037 c -0.31251,-0.0203 -0.62229,-0.0597 -0.68834,-0.0876 -0.0956,-0.0403 -0.15857,0.0529 -0.30781,0.45526 -0.16895,0.4554 -0.1755,0.51097 -0.0658,0.55644 0.22158,0.0918 1.17679,0.0675 1.25214,-0.0319 z"
       id="path27" /></g></svg>
