<?xml version="1.0" encoding="UTF-8" standalone="no"?>
<!-- Created with Inkscape (http://www.inkscape.org/) -->

<svg
   width="32"
   height="31.999998"
   viewBox="0 0 8.4666665 8.4666661"
   version="1.1"
   id="svg5"
   xml:space="preserve"
   inkscape:version="1.3 (0e150ed6c4, 2023-07-21)"
   sodipodi:docname="icon_zoom_normal.svg"
   inkscape:export-filename="V6\icons\icon_start.svg"
   inkscape:export-xdpi="103.358"
   inkscape:export-ydpi="103.358"
   xmlns:inkscape="http://www.inkscape.org/namespaces/inkscape"
   xmlns:sodipodi="http://sodipodi.sourceforge.net/DTD/sodipodi-0.dtd"
   xmlns="http://www.w3.org/2000/svg"
   xmlns:svg="http://www.w3.org/2000/svg"><sodipodi:namedview
     id="namedview7"
     pagecolor="#ffffff"
     bordercolor="#666666"
     borderopacity="1.0"
     inkscape:showpageshadow="2"
     inkscape:pageopacity="0.0"
     inkscape:pagecheckerboard="true"
     inkscape:deskcolor="#d1d1d1"
     inkscape:document-units="px"
     showgrid="false"
     inkscape:zoom="12.177941"
     inkscape:cx="2.627702"
     inkscape:cy="16.17679"
     inkscape:window-width="1920"
     inkscape:window-height="1000"
     inkscape:window-x="-11"
     inkscape:window-y="-11"
     inkscape:window-maximized="1"
     inkscape:current-layer="layer1"
     showguides="true" /><defs
     id="defs2"><inkscape:path-effect
       effect="fillet_chamfer"
       id="path-effect35"
       is_visible="true"
       lpeversion="1"
       nodesatellites_param="F,0,0,1,0,0.953381,0,1 @ F,0,0,1,0,0.97447696,0,1 @ F,0,0,1,0,1.1563433,0,1 @ F,0,0,1,0,0.74753081,0,1 @ F,0,0,1,0,0.37554865,0,1 @ F,0,0,1,0,0.46131822,0,1"
       radius="0"
       unit="px"
       method="auto"
       mode="F"
       chamfer_steps="1"
       flexible="false"
       use_knot_distance="true"
       apply_no_radius="true"
       apply_with_radius="true"
       only_selected="false"
       hide_knots="false" /></defs><g
     inkscape:label="Layer 1"
     inkscape:groupmode="layer"
     id="layer1"
     transform="translate(-129.66141,-127.25538)"><circle
       style="color:#000000;overflow:visible;fill:#cdd9ff;fill-opacity:0.617143;stroke:#000000;stroke-width:0.663341;stroke-linejoin:round"
       id="path1"
       cx="133.89473"
       cy="130.93941"
       r="2.9674354" /><rect
       style="color:#000000;font-variation-settings:normal;overflow:visible;vector-effect:none;fill:#000000;fill-opacity:1;stroke:none;stroke-width:0.194151;stroke-linecap:butt;stroke-linejoin:round;stroke-miterlimit:4;stroke-dasharray:none;stroke-dashoffset:0;stroke-opacity:1;-inkscape-stroke:none"
       id="rect53"
       width="1.2818601"
       height="2.1943707"
       x="49.845612"
       y="183.30232"
       inkscape:transform-center-y="3.5119883"
       transform="rotate(-30)"
       inkscape:transform-center-x="-2.0276514" /><rect
       style="color:#000000;overflow:visible;fill:#000000;stroke-width:0.194151;stroke-linejoin:round;-inkscape-stroke:none"
       id="rect1"
       width="0.97768986"
       height="3.9107594"
       x="133.4059"
       y="128.98402" /><rect
       style="color:#000000;overflow:visible;fill:#000000;stroke-width:0.194151;stroke-linejoin:round;-inkscape-stroke:none"
       id="rect2"
       width="0.97768986"
       height="3.9107594"
       x="130.45056"
       y="-135.85011"
       transform="rotate(90)" /><path
       id="path3"
       style="fill:#ffffff;fill-opacity:0.429714;fill-rule:evenodd;stroke:none;stroke-width:0.206189px;stroke-linecap:butt;stroke-linejoin:miter;stroke-opacity:1"
       d="m 134.78067,130.7333 c -0.19892,0.13862 -0.43732,0.30565 -0.69111,0.45495 0.1128,0.24532 0.23575,0.48662 0.36672,0.72364 0.21069,-0.11801 0.41789,-0.24241 0.62353,-0.37072 -0.14122,-0.22818 -0.2375,-0.48319 -0.29914,-0.80787 z m -0.91358,0.57876 c -0.26913,0.14002 -0.54843,0.24886 -0.81141,0.27624 0.0521,0.27079 0.18544,0.567 0.35104,0.84291 0.28083,-0.11908 0.55549,-0.25207 0.82484,-0.39614 -0.12819,-0.23334 -0.25,-0.47397 -0.36447,-0.72301 z m 1.35923,0.43797 c -0.20905,0.13301 -0.42301,0.26208 -0.64347,0.38533 0.13271,0.22922 0.27241,0.45495 0.41648,0.67869 0.23688,-0.14225 0.47104,-0.32713 0.70324,-0.58064 -0.18976,-0.16517 -0.34684,-0.32 -0.47625,-0.48338 z m -0.86912,0.50802 c -0.26075,0.13842 -0.53057,0.26849 -0.81133,0.38878 0.15535,0.22623 0.32321,0.4279 0.4714,0.57417 0.25793,-0.077 0.51054,-0.16266 0.75962,-0.28547 -0.14503,-0.22018 -0.28544,-0.44524 -0.41969,-0.67748 z" /></g></svg>
